G75*
%MOIN*%
%OFA0B0*%
%FSLAX24Y24*%
%IPPOS*%
%LPD*%
%AMOC8*
5,1,8,0,0,1.08239X$1,22.5*
%
%ADD10C,0.0000*%
%ADD11C,0.0060*%
%ADD12C,0.0080*%
%ADD13C,0.0010*%
%ADD14C,0.0050*%
%ADD15C,0.0020*%
%ADD16R,0.0850X0.0200*%
%ADD17C,0.0040*%
%ADD18C,0.0059*%
%ADD19R,0.0250X0.0031*%
%ADD20R,0.0500X0.0031*%
%ADD21R,0.0375X0.0031*%
%ADD22R,0.0313X0.0031*%
%ADD23R,0.0469X0.0031*%
%ADD24R,0.0625X0.0031*%
%ADD25R,0.0188X0.0031*%
%ADD26R,0.0406X0.0031*%
%ADD27R,0.0562X0.0031*%
%ADD28R,0.0500X0.0031*%
%ADD29R,0.0313X0.0031*%
%ADD30R,0.0656X0.0031*%
%ADD31R,0.0906X0.0031*%
%ADD32R,0.0563X0.0031*%
%ADD33R,0.0532X0.0031*%
%ADD34R,0.0125X0.0031*%
%ADD35R,0.0688X0.0031*%
%ADD36R,0.0687X0.0031*%
%ADD37R,0.0906X0.0031*%
%ADD38R,0.0469X0.0031*%
%ADD39R,0.0281X0.0031*%
%ADD40R,0.0750X0.0031*%
%ADD41R,0.0281X0.0031*%
%ADD42R,0.0812X0.0031*%
%ADD43R,0.0875X0.0031*%
%ADD44R,0.0782X0.0031*%
%ADD45R,0.0469X0.0031*%
%ADD46R,0.0437X0.0031*%
%ADD47R,0.0844X0.0031*%
%ADD48R,0.0312X0.0031*%
%ADD49R,0.0843X0.0031*%
%ADD50R,0.0875X0.0031*%
%ADD51R,0.0844X0.0031*%
%ADD52R,0.1032X0.0031*%
%ADD53R,0.0312X0.0031*%
%ADD54R,0.0906X0.0031*%
%ADD55R,0.1125X0.0031*%
%ADD56R,0.0907X0.0031*%
%ADD57R,0.0937X0.0031*%
%ADD58R,0.0094X0.0031*%
%ADD59R,0.0219X0.0031*%
%ADD60R,0.1187X0.0031*%
%ADD61R,0.0937X0.0031*%
%ADD62R,0.0062X0.0031*%
%ADD63R,0.0469X0.0031*%
%ADD64R,0.1218X0.0031*%
%ADD65R,0.0969X0.0031*%
%ADD66R,0.0219X0.0031*%
%ADD67R,0.0281X0.0031*%
%ADD68R,0.0344X0.0031*%
%ADD69R,0.1250X0.0031*%
%ADD70R,0.0219X0.0031*%
%ADD71R,0.0438X0.0031*%
%ADD72R,0.0125X0.0031*%
%ADD73R,0.0187X0.0031*%
%ADD74R,0.0594X0.0031*%
%ADD75R,0.0187X0.0031*%
%ADD76R,0.0344X0.0031*%
%ADD77R,0.0094X0.0031*%
%ADD78R,0.0344X0.0031*%
%ADD79R,0.0032X0.0031*%
%ADD80R,0.0063X0.0031*%
%ADD81R,0.0406X0.0031*%
%ADD82R,0.0406X0.0031*%
%ADD83R,0.0468X0.0031*%
%ADD84R,0.0343X0.0031*%
%ADD85R,0.0282X0.0031*%
%ADD86R,0.0250X0.0031*%
%ADD87R,0.0813X0.0031*%
%ADD88R,0.0375X0.0031*%
%ADD89R,0.0437X0.0031*%
%ADD90R,0.0813X0.0031*%
%ADD91R,0.0688X0.0031*%
%ADD92R,0.0719X0.0031*%
%ADD93R,0.0719X0.0031*%
%ADD94R,0.0407X0.0031*%
%ADD95R,0.0687X0.0031*%
%ADD96R,0.0844X0.0031*%
%ADD97R,0.0718X0.0031*%
%ADD98R,0.0343X0.0031*%
%ADD99R,0.0407X0.0031*%
%ADD100R,0.0718X0.0031*%
%ADD101R,0.0282X0.0031*%
%ADD102R,0.0719X0.0031*%
%ADD103R,0.0657X0.0031*%
%ADD104R,0.0657X0.0031*%
%ADD105R,0.0812X0.0031*%
%ADD106R,0.0656X0.0031*%
%ADD107R,0.0344X0.0031*%
%ADD108R,0.0093X0.0031*%
%ADD109R,0.0219X0.0031*%
%ADD110R,0.0781X0.0031*%
%ADD111R,0.0438X0.0031*%
%ADD112R,0.0281X0.0031*%
%ADD113R,0.0156X0.0031*%
%ADD114R,0.0968X0.0031*%
%ADD115R,0.0968X0.0031*%
%ADD116R,0.0062X0.0031*%
%ADD117R,0.0157X0.0031*%
%ADD118R,0.0750X0.0031*%
%ADD119R,0.0906X0.0031*%
%ADD120R,0.0781X0.0031*%
%ADD121R,0.0563X0.0031*%
%ADD122R,0.0031X0.0031*%
%ADD123R,0.0406X0.0031*%
%ADD124R,0.0094X0.0031*%
%ADD125R,0.0531X0.0031*%
%ADD126R,0.0781X0.0031*%
%ADD127R,0.0594X0.0031*%
%ADD128R,0.0468X0.0031*%
%ADD129R,0.0969X0.0031*%
%ADD130R,0.0156X0.0031*%
%ADD131R,0.1000X0.0031*%
%ADD132R,0.0031X0.0031*%
%ADD133R,0.0032X0.0031*%
%ADD134R,0.0031X0.0031*%
%ADD135R,0.0063X0.0031*%
%ADD136R,0.0188X0.0031*%
%ADD137R,0.0031X0.0031*%
%ADD138R,0.0218X0.0031*%
%ADD139R,0.0938X0.0031*%
%ADD140R,0.0907X0.0031*%
%ADD141R,0.0843X0.0031*%
%ADD142R,0.1125X0.0031*%
%ADD143R,0.1218X0.0031*%
%ADD144R,0.1156X0.0031*%
%ADD145R,0.0625X0.0031*%
%ADD146R,0.0094X0.0031*%
D10*
X000625Y002101D02*
X000625Y018601D01*
X032125Y018601D01*
X032125Y002101D01*
X000625Y002101D01*
X026770Y013331D02*
X026772Y013368D01*
X026778Y013405D01*
X026787Y013441D01*
X026801Y013475D01*
X026818Y013508D01*
X026838Y013540D01*
X026861Y013569D01*
X026887Y013595D01*
X026916Y013618D01*
X026947Y013638D01*
X026981Y013655D01*
X027015Y013669D01*
X027051Y013678D01*
X027088Y013684D01*
X027125Y013686D01*
X027162Y013684D01*
X027199Y013678D01*
X027235Y013669D01*
X027269Y013655D01*
X027302Y013638D01*
X027334Y013618D01*
X027363Y013595D01*
X027389Y013569D01*
X027412Y013540D01*
X027432Y013509D01*
X027449Y013475D01*
X027463Y013441D01*
X027472Y013405D01*
X027478Y013368D01*
X027480Y013331D01*
X027478Y013294D01*
X027472Y013257D01*
X027463Y013221D01*
X027449Y013187D01*
X027432Y013154D01*
X027412Y013122D01*
X027389Y013093D01*
X027363Y013067D01*
X027334Y013044D01*
X027303Y013024D01*
X027269Y013007D01*
X027235Y012993D01*
X027199Y012984D01*
X027162Y012978D01*
X027125Y012976D01*
X027088Y012978D01*
X027051Y012984D01*
X027015Y012993D01*
X026981Y013007D01*
X026948Y013024D01*
X026916Y013044D01*
X026887Y013067D01*
X026861Y013093D01*
X026838Y013122D01*
X026818Y013153D01*
X026801Y013187D01*
X026787Y013221D01*
X026778Y013257D01*
X026772Y013294D01*
X026770Y013331D01*
X026770Y016871D02*
X026772Y016908D01*
X026778Y016945D01*
X026787Y016981D01*
X026801Y017015D01*
X026818Y017048D01*
X026838Y017080D01*
X026861Y017109D01*
X026887Y017135D01*
X026916Y017158D01*
X026947Y017178D01*
X026981Y017195D01*
X027015Y017209D01*
X027051Y017218D01*
X027088Y017224D01*
X027125Y017226D01*
X027162Y017224D01*
X027199Y017218D01*
X027235Y017209D01*
X027269Y017195D01*
X027302Y017178D01*
X027334Y017158D01*
X027363Y017135D01*
X027389Y017109D01*
X027412Y017080D01*
X027432Y017049D01*
X027449Y017015D01*
X027463Y016981D01*
X027472Y016945D01*
X027478Y016908D01*
X027480Y016871D01*
X027478Y016834D01*
X027472Y016797D01*
X027463Y016761D01*
X027449Y016727D01*
X027432Y016694D01*
X027412Y016662D01*
X027389Y016633D01*
X027363Y016607D01*
X027334Y016584D01*
X027303Y016564D01*
X027269Y016547D01*
X027235Y016533D01*
X027199Y016524D01*
X027162Y016518D01*
X027125Y016516D01*
X027088Y016518D01*
X027051Y016524D01*
X027015Y016533D01*
X026981Y016547D01*
X026948Y016564D01*
X026916Y016584D01*
X026887Y016607D01*
X026861Y016633D01*
X026838Y016662D01*
X026818Y016693D01*
X026801Y016727D01*
X026787Y016761D01*
X026778Y016797D01*
X026772Y016834D01*
X026770Y016871D01*
D11*
X026725Y017501D02*
X026425Y017501D01*
X026425Y017601D01*
X025225Y017601D01*
X025125Y017501D01*
X024725Y017101D01*
X024725Y016601D01*
X025125Y017501D02*
X026425Y017501D01*
X026725Y017501D02*
X027525Y017501D01*
X027825Y017501D01*
X027825Y017601D01*
X029025Y017601D01*
X029125Y017501D01*
X027825Y017501D01*
X027525Y017501D02*
X027525Y017651D01*
X026725Y017651D01*
X026725Y017501D01*
X029125Y017501D02*
X029525Y017101D01*
X029525Y016601D01*
X027875Y015851D02*
X027875Y014351D01*
X026375Y014351D01*
X026375Y015851D01*
X027875Y015851D01*
X025725Y015101D02*
X025727Y015176D01*
X025733Y015250D01*
X025743Y015324D01*
X025757Y015397D01*
X025774Y015469D01*
X025796Y015541D01*
X025821Y015611D01*
X025850Y015679D01*
X025883Y015747D01*
X025919Y015812D01*
X025958Y015875D01*
X026001Y015936D01*
X026047Y015995D01*
X026096Y016051D01*
X026148Y016104D01*
X026203Y016155D01*
X026260Y016202D01*
X026320Y016247D01*
X026382Y016288D01*
X026447Y016326D01*
X026513Y016360D01*
X026581Y016391D01*
X026650Y016418D01*
X026721Y016441D01*
X026793Y016461D01*
X026866Y016477D01*
X026939Y016489D01*
X027013Y016497D01*
X027088Y016501D01*
X027162Y016501D01*
X027237Y016497D01*
X027311Y016489D01*
X027384Y016477D01*
X027457Y016461D01*
X027529Y016441D01*
X027600Y016418D01*
X027669Y016391D01*
X027737Y016360D01*
X027803Y016326D01*
X027868Y016288D01*
X027930Y016247D01*
X027990Y016202D01*
X028047Y016155D01*
X028102Y016104D01*
X028154Y016051D01*
X028203Y015995D01*
X028249Y015936D01*
X028292Y015875D01*
X028331Y015812D01*
X028367Y015747D01*
X028400Y015679D01*
X028429Y015611D01*
X028454Y015541D01*
X028476Y015469D01*
X028493Y015397D01*
X028507Y015324D01*
X028517Y015250D01*
X028523Y015176D01*
X028525Y015101D01*
X028523Y015026D01*
X028517Y014952D01*
X028507Y014878D01*
X028493Y014805D01*
X028476Y014733D01*
X028454Y014661D01*
X028429Y014591D01*
X028400Y014523D01*
X028367Y014455D01*
X028331Y014390D01*
X028292Y014327D01*
X028249Y014266D01*
X028203Y014207D01*
X028154Y014151D01*
X028102Y014098D01*
X028047Y014047D01*
X027990Y014000D01*
X027930Y013955D01*
X027868Y013914D01*
X027803Y013876D01*
X027737Y013842D01*
X027669Y013811D01*
X027600Y013784D01*
X027529Y013761D01*
X027457Y013741D01*
X027384Y013725D01*
X027311Y013713D01*
X027237Y013705D01*
X027162Y013701D01*
X027088Y013701D01*
X027013Y013705D01*
X026939Y013713D01*
X026866Y013725D01*
X026793Y013741D01*
X026721Y013761D01*
X026650Y013784D01*
X026581Y013811D01*
X026513Y013842D01*
X026447Y013876D01*
X026382Y013914D01*
X026320Y013955D01*
X026260Y014000D01*
X026203Y014047D01*
X026148Y014098D01*
X026096Y014151D01*
X026047Y014207D01*
X026001Y014266D01*
X025958Y014327D01*
X025919Y014390D01*
X025883Y014455D01*
X025850Y014523D01*
X025821Y014591D01*
X025796Y014661D01*
X025774Y014733D01*
X025757Y014805D01*
X025743Y014878D01*
X025733Y014952D01*
X025727Y015026D01*
X025725Y015101D01*
X024725Y015551D02*
X024725Y014651D01*
X024725Y013601D02*
X024725Y013101D01*
X025125Y012701D01*
X025225Y012601D01*
X026425Y012601D01*
X026425Y012701D01*
X026725Y012701D01*
X027525Y012701D01*
X027825Y012701D01*
X029125Y012701D01*
X029025Y012601D01*
X027825Y012601D01*
X027825Y012701D01*
X027525Y012701D02*
X027525Y012551D01*
X026725Y012551D01*
X026725Y012701D01*
X026425Y012701D02*
X025125Y012701D01*
X029125Y012701D02*
X029525Y013101D01*
X029525Y013601D01*
X029525Y014651D02*
X029525Y015551D01*
X019278Y012661D02*
X018851Y012661D01*
X019172Y012982D01*
X019172Y012341D01*
X018634Y012341D02*
X018207Y012768D01*
X018207Y012341D02*
X018634Y012768D01*
X017345Y012875D02*
X017345Y012448D01*
X017238Y012341D01*
X017025Y012341D01*
X016918Y012448D01*
X017345Y012875D01*
X017238Y012982D01*
X017025Y012982D01*
X016918Y012875D01*
X016918Y012448D01*
X016700Y012448D02*
X016594Y012341D01*
X016380Y012341D01*
X016273Y012448D01*
X016700Y012875D01*
X016700Y012448D01*
X016273Y012448D02*
X016273Y012875D01*
X016380Y012982D01*
X016594Y012982D01*
X016700Y012875D01*
X016056Y012875D02*
X016056Y012448D01*
X015949Y012341D01*
X015735Y012341D01*
X015629Y012448D01*
X016056Y012875D01*
X015949Y012982D01*
X015735Y012982D01*
X015629Y012875D01*
X015629Y012448D01*
X015411Y012875D02*
X014984Y012448D01*
X014984Y012341D01*
X014767Y012341D02*
X014767Y012982D01*
X014984Y012982D02*
X015411Y012982D01*
X015411Y012875D01*
X014767Y012341D02*
X014340Y012982D01*
X014340Y012341D01*
X014122Y012341D02*
X013695Y012341D01*
X014122Y012768D01*
X014122Y012875D01*
X014015Y012982D01*
X013802Y012982D01*
X013695Y012875D01*
X013776Y015357D02*
X013776Y015998D01*
X013994Y015891D02*
X013994Y015784D01*
X014101Y015678D01*
X014314Y015678D01*
X014421Y015571D01*
X014421Y015464D01*
X014314Y015357D01*
X014101Y015357D01*
X013994Y015464D01*
X013776Y015357D02*
X013563Y015571D01*
X013349Y015357D01*
X013349Y015998D01*
X013994Y015891D02*
X014101Y015998D01*
X014314Y015998D01*
X014421Y015891D01*
X014638Y015891D02*
X014745Y015998D01*
X014959Y015998D01*
X015065Y015891D01*
X015065Y015784D01*
X014638Y015357D01*
X015065Y015357D01*
X015283Y015464D02*
X015283Y015571D01*
X015390Y015678D01*
X015603Y015678D01*
X015710Y015571D01*
X015710Y015464D01*
X015603Y015357D01*
X015390Y015357D01*
X015283Y015464D01*
X015390Y015678D02*
X015283Y015784D01*
X015283Y015891D01*
X015390Y015998D01*
X015603Y015998D01*
X015710Y015891D01*
X015710Y015784D01*
X015603Y015678D01*
X015927Y015784D02*
X016141Y015998D01*
X016141Y015357D01*
X015927Y015357D02*
X016355Y015357D01*
X016572Y015357D02*
X016999Y015784D01*
X016999Y015891D01*
X016892Y015998D01*
X016679Y015998D01*
X016572Y015891D01*
X016572Y015357D02*
X016999Y015357D01*
X017861Y015357D02*
X018288Y015784D01*
X018506Y015678D02*
X018933Y015678D01*
X018826Y015998D02*
X018506Y015678D01*
X018288Y015357D02*
X017861Y015784D01*
X018826Y015998D02*
X018826Y015357D01*
X017627Y009221D02*
X017200Y009221D01*
X017200Y008581D01*
X017627Y008581D01*
X017414Y008901D02*
X017200Y008901D01*
X016769Y008901D02*
X016556Y008901D01*
X016338Y009008D02*
X016231Y008901D01*
X015911Y008901D01*
X015694Y008901D02*
X015266Y008901D01*
X015049Y008794D02*
X015049Y008687D01*
X014942Y008581D01*
X014729Y008581D01*
X014622Y008687D01*
X014729Y008901D02*
X014942Y008901D01*
X015049Y008794D01*
X015266Y008581D02*
X015266Y009221D01*
X015049Y009114D02*
X014942Y009221D01*
X014729Y009221D01*
X014622Y009114D01*
X014622Y009008D01*
X014729Y008901D01*
X014404Y009221D02*
X013977Y009221D01*
X013977Y008581D01*
X014404Y008581D01*
X014191Y008901D02*
X013977Y008901D01*
X013760Y009221D02*
X013760Y008581D01*
X013333Y008581D02*
X013333Y009221D01*
X013546Y009008D01*
X013760Y009221D01*
X015694Y009221D02*
X015694Y008581D01*
X015911Y008581D02*
X016231Y008581D01*
X016338Y008687D01*
X016338Y008794D01*
X016231Y008901D01*
X016338Y009008D02*
X016338Y009114D01*
X016231Y009221D01*
X015911Y009221D01*
X015911Y008581D01*
X016556Y008581D02*
X016983Y008581D01*
X016556Y008581D02*
X016556Y009221D01*
X016983Y009221D01*
X024249Y007254D02*
X024249Y006827D01*
X024356Y006720D01*
X024570Y006720D01*
X024677Y006827D01*
X024894Y006720D02*
X024894Y007361D01*
X025214Y007361D01*
X025321Y007254D01*
X025321Y007041D01*
X025214Y006934D01*
X024894Y006934D01*
X025108Y006934D02*
X025321Y006720D01*
X025539Y006720D02*
X025966Y007147D01*
X025966Y007254D01*
X025859Y007361D01*
X025645Y007361D01*
X025539Y007254D01*
X026183Y007254D02*
X026183Y006827D01*
X026610Y007254D01*
X026610Y006827D01*
X026503Y006720D01*
X026290Y006720D01*
X026183Y006827D01*
X025966Y006720D02*
X025539Y006720D01*
X026183Y007254D02*
X026290Y007361D01*
X026503Y007361D01*
X026610Y007254D01*
X026828Y007254D02*
X026934Y007361D01*
X027148Y007361D01*
X027255Y007254D01*
X027255Y007147D01*
X027148Y007041D01*
X027255Y006934D01*
X027255Y006827D01*
X027148Y006720D01*
X026934Y006720D01*
X026828Y006827D01*
X027041Y007041D02*
X027148Y007041D01*
X027472Y007254D02*
X027579Y007361D01*
X027793Y007361D01*
X027899Y007254D01*
X027899Y007147D01*
X027472Y006720D01*
X027899Y006720D01*
X024677Y007254D02*
X024570Y007361D01*
X024356Y007361D01*
X024249Y007254D01*
X006947Y007842D02*
X006520Y007842D01*
X006947Y008269D01*
X006947Y008375D01*
X006841Y008482D01*
X006627Y008482D01*
X006520Y008375D01*
X006303Y008375D02*
X006303Y008269D01*
X006196Y008162D01*
X006303Y008055D01*
X006303Y007948D01*
X006196Y007842D01*
X005983Y007842D01*
X005876Y007948D01*
X005658Y007948D02*
X005552Y007842D01*
X005338Y007842D01*
X005231Y007948D01*
X005658Y008375D01*
X005658Y007948D01*
X006089Y008162D02*
X006196Y008162D01*
X006303Y008375D02*
X006196Y008482D01*
X005983Y008482D01*
X005876Y008375D01*
X005658Y008375D02*
X005552Y008482D01*
X005338Y008482D01*
X005231Y008375D01*
X005231Y007948D01*
X005014Y007842D02*
X004587Y007842D01*
X005014Y008269D01*
X005014Y008375D01*
X004907Y008482D01*
X004693Y008482D01*
X004587Y008375D01*
X004369Y008375D02*
X004369Y008162D01*
X004262Y008055D01*
X003942Y008055D01*
X003942Y007842D02*
X003942Y008482D01*
X004262Y008482D01*
X004369Y008375D01*
X004156Y008055D02*
X004369Y007842D01*
X003725Y007948D02*
X003618Y007842D01*
X003404Y007842D01*
X003298Y007948D01*
X003298Y008375D01*
X003404Y008482D01*
X003618Y008482D01*
X003725Y008375D01*
D12*
X006621Y012171D02*
X006744Y012124D01*
X006866Y012073D01*
X006986Y012019D01*
X007104Y011961D01*
X007221Y011899D01*
X007335Y011834D01*
X007448Y011766D01*
X007559Y011694D01*
X007667Y011619D01*
X007773Y011540D01*
X007877Y011459D01*
X007978Y011374D01*
X008076Y011286D01*
X008172Y011196D01*
X008265Y011102D01*
X008356Y011006D01*
X008443Y010907D01*
X008527Y010806D01*
X008608Y010702D01*
X008686Y010596D01*
X008761Y010487D01*
X008832Y010376D01*
X008900Y010263D01*
X008965Y010148D01*
X009026Y010031D01*
X009084Y009913D01*
X009138Y009793D01*
X009188Y009671D01*
X009235Y009547D01*
X009278Y009423D01*
X009317Y009297D01*
X009352Y009170D01*
X009384Y009042D01*
X009411Y008913D01*
X009435Y008783D01*
X009455Y008653D01*
X009471Y008522D01*
X009483Y008390D01*
X009491Y008259D01*
X009495Y008127D01*
X009495Y007995D01*
X009491Y007863D01*
X009483Y007732D01*
X009471Y007600D01*
X009455Y007469D01*
X009435Y007339D01*
X009411Y007209D01*
X009384Y007080D01*
X009352Y006952D01*
X009317Y006825D01*
X009278Y006699D01*
X009235Y006575D01*
X009188Y006451D01*
X009138Y006329D01*
X009084Y006209D01*
X009026Y006091D01*
X008965Y005974D01*
X008900Y005859D01*
X008832Y005746D01*
X008761Y005635D01*
X008686Y005526D01*
X008608Y005420D01*
X008527Y005316D01*
X008443Y005215D01*
X008356Y005116D01*
X008265Y005020D01*
X008172Y004926D01*
X008076Y004836D01*
X007978Y004748D01*
X007877Y004663D01*
X007773Y004582D01*
X007667Y004503D01*
X007559Y004428D01*
X007448Y004356D01*
X007335Y004288D01*
X007221Y004223D01*
X007104Y004161D01*
X006986Y004103D01*
X006866Y004049D01*
X006744Y003998D01*
X006621Y003951D01*
X003629Y003951D01*
X004225Y003426D02*
X004225Y002776D01*
X004227Y002759D01*
X004231Y002742D01*
X004238Y002726D01*
X004248Y002712D01*
X004261Y002699D01*
X004275Y002689D01*
X004291Y002682D01*
X004308Y002678D01*
X004325Y002676D01*
X004925Y002676D02*
X004942Y002678D01*
X004959Y002682D01*
X004975Y002689D01*
X004989Y002699D01*
X005002Y002712D01*
X005012Y002726D01*
X005019Y002742D01*
X005023Y002759D01*
X005025Y002776D01*
X005025Y003426D01*
X005023Y003443D01*
X005019Y003460D01*
X005012Y003476D01*
X005002Y003490D01*
X004989Y003503D01*
X004975Y003513D01*
X004959Y003520D01*
X004942Y003524D01*
X004925Y003526D01*
X005225Y003426D02*
X005225Y002776D01*
X005227Y002759D01*
X005231Y002742D01*
X005238Y002726D01*
X005248Y002712D01*
X005261Y002699D01*
X005275Y002689D01*
X005291Y002682D01*
X005308Y002678D01*
X005325Y002676D01*
X005925Y002676D02*
X005942Y002678D01*
X005959Y002682D01*
X005975Y002689D01*
X005989Y002699D01*
X006002Y002712D01*
X006012Y002726D01*
X006019Y002742D01*
X006023Y002759D01*
X006025Y002776D01*
X006025Y003426D01*
X006023Y003443D01*
X006019Y003460D01*
X006012Y003476D01*
X006002Y003490D01*
X005989Y003503D01*
X005975Y003513D01*
X005959Y003520D01*
X005942Y003524D01*
X005925Y003526D01*
X006225Y003426D02*
X006225Y002776D01*
X006227Y002759D01*
X006231Y002742D01*
X006238Y002726D01*
X006248Y002712D01*
X006261Y002699D01*
X006275Y002689D01*
X006291Y002682D01*
X006308Y002678D01*
X006325Y002676D01*
X006925Y002676D02*
X006942Y002678D01*
X006959Y002682D01*
X006975Y002689D01*
X006989Y002699D01*
X007002Y002712D01*
X007012Y002726D01*
X007019Y002742D01*
X007023Y002759D01*
X007025Y002776D01*
X007025Y003426D01*
X007023Y003443D01*
X007019Y003460D01*
X007012Y003476D01*
X007002Y003490D01*
X006989Y003503D01*
X006975Y003513D01*
X006959Y003520D01*
X006942Y003524D01*
X006925Y003526D01*
X007225Y003426D02*
X007225Y002776D01*
X007227Y002759D01*
X007231Y002742D01*
X007238Y002726D01*
X007248Y002712D01*
X007261Y002699D01*
X007275Y002689D01*
X007291Y002682D01*
X007308Y002678D01*
X007325Y002676D01*
X007925Y002676D02*
X007942Y002678D01*
X007959Y002682D01*
X007975Y002689D01*
X007989Y002699D01*
X008002Y002712D01*
X008012Y002726D01*
X008019Y002742D01*
X008023Y002759D01*
X008025Y002776D01*
X008025Y003426D01*
X008023Y003443D01*
X008019Y003460D01*
X008012Y003476D01*
X008002Y003490D01*
X007989Y003503D01*
X007975Y003513D01*
X007959Y003520D01*
X007942Y003524D01*
X007925Y003526D01*
X008225Y003426D02*
X008225Y002776D01*
X008227Y002759D01*
X008231Y002742D01*
X008238Y002726D01*
X008248Y002712D01*
X008261Y002699D01*
X008275Y002689D01*
X008291Y002682D01*
X008308Y002678D01*
X008325Y002676D01*
X008925Y002676D02*
X008942Y002678D01*
X008959Y002682D01*
X008975Y002689D01*
X008989Y002699D01*
X009002Y002712D01*
X009012Y002726D01*
X009019Y002742D01*
X009023Y002759D01*
X009025Y002776D01*
X009025Y003426D01*
X009023Y003443D01*
X009019Y003460D01*
X009012Y003476D01*
X009002Y003490D01*
X008989Y003503D01*
X008975Y003513D01*
X008959Y003520D01*
X008942Y003524D01*
X008925Y003526D01*
X008325Y003526D02*
X008308Y003524D01*
X008291Y003520D01*
X008275Y003513D01*
X008261Y003503D01*
X008248Y003490D01*
X008238Y003476D01*
X008231Y003460D01*
X008227Y003443D01*
X008225Y003426D01*
X007325Y003526D02*
X007308Y003524D01*
X007291Y003520D01*
X007275Y003513D01*
X007261Y003503D01*
X007248Y003490D01*
X007238Y003476D01*
X007231Y003460D01*
X007227Y003443D01*
X007225Y003426D01*
X006325Y003526D02*
X006308Y003524D01*
X006291Y003520D01*
X006275Y003513D01*
X006261Y003503D01*
X006248Y003490D01*
X006238Y003476D01*
X006231Y003460D01*
X006227Y003443D01*
X006225Y003426D01*
X005325Y003526D02*
X005308Y003524D01*
X005291Y003520D01*
X005275Y003513D01*
X005261Y003503D01*
X005248Y003490D01*
X005238Y003476D01*
X005231Y003460D01*
X005227Y003443D01*
X005225Y003426D01*
X004325Y003526D02*
X004308Y003524D01*
X004291Y003520D01*
X004275Y003513D01*
X004261Y003503D01*
X004248Y003490D01*
X004238Y003476D01*
X004231Y003460D01*
X004227Y003443D01*
X004225Y003426D01*
X002325Y004151D02*
X001925Y004151D01*
X002125Y004351D02*
X002125Y003951D01*
X000641Y003601D02*
X000643Y003663D01*
X000649Y003726D01*
X000659Y003787D01*
X000673Y003848D01*
X000690Y003908D01*
X000711Y003967D01*
X000737Y004024D01*
X000765Y004079D01*
X000797Y004133D01*
X000833Y004184D01*
X000871Y004234D01*
X000913Y004280D01*
X000957Y004324D01*
X001005Y004365D01*
X001054Y004403D01*
X001106Y004437D01*
X001160Y004468D01*
X001216Y004496D01*
X001274Y004520D01*
X001333Y004541D01*
X001393Y004557D01*
X001454Y004570D01*
X001516Y004579D01*
X001578Y004584D01*
X001641Y004585D01*
X001703Y004582D01*
X001765Y004575D01*
X001827Y004564D01*
X001887Y004549D01*
X001947Y004531D01*
X002005Y004509D01*
X002062Y004483D01*
X002117Y004453D01*
X002170Y004420D01*
X002221Y004384D01*
X002269Y004345D01*
X002315Y004302D01*
X002358Y004257D01*
X002398Y004209D01*
X002435Y004159D01*
X002469Y004106D01*
X002500Y004052D01*
X002526Y003996D01*
X002550Y003938D01*
X002569Y003878D01*
X002585Y003818D01*
X002597Y003756D01*
X002605Y003695D01*
X002609Y003632D01*
X002609Y003570D01*
X002605Y003507D01*
X002597Y003446D01*
X002585Y003384D01*
X002569Y003324D01*
X002550Y003264D01*
X002526Y003206D01*
X002500Y003150D01*
X002469Y003096D01*
X002435Y003043D01*
X002398Y002993D01*
X002358Y002945D01*
X002315Y002900D01*
X002269Y002857D01*
X002221Y002818D01*
X002170Y002782D01*
X002117Y002749D01*
X002062Y002719D01*
X002005Y002693D01*
X001947Y002671D01*
X001887Y002653D01*
X001827Y002638D01*
X001765Y002627D01*
X001703Y002620D01*
X001641Y002617D01*
X001578Y002618D01*
X001516Y002623D01*
X001454Y002632D01*
X001393Y002645D01*
X001333Y002661D01*
X001274Y002682D01*
X001216Y002706D01*
X001160Y002734D01*
X001106Y002765D01*
X001054Y002799D01*
X001005Y002837D01*
X000957Y002878D01*
X000913Y002922D01*
X000871Y002968D01*
X000833Y003018D01*
X000797Y003069D01*
X000765Y003123D01*
X000737Y003178D01*
X000711Y003235D01*
X000690Y003294D01*
X000673Y003354D01*
X000659Y003415D01*
X000649Y003476D01*
X000643Y003539D01*
X000641Y003601D01*
X000925Y004151D02*
X001325Y004151D01*
X003629Y003951D02*
X003506Y003998D01*
X003384Y004049D01*
X003264Y004103D01*
X003146Y004161D01*
X003029Y004223D01*
X002915Y004288D01*
X002802Y004356D01*
X002691Y004428D01*
X002583Y004503D01*
X002477Y004582D01*
X002373Y004663D01*
X002272Y004748D01*
X002174Y004836D01*
X002078Y004926D01*
X001985Y005020D01*
X001894Y005116D01*
X001807Y005215D01*
X001723Y005316D01*
X001642Y005420D01*
X001564Y005526D01*
X001489Y005635D01*
X001418Y005746D01*
X001350Y005859D01*
X001285Y005974D01*
X001224Y006091D01*
X001166Y006209D01*
X001112Y006329D01*
X001062Y006451D01*
X001015Y006575D01*
X000972Y006699D01*
X000933Y006825D01*
X000898Y006952D01*
X000866Y007080D01*
X000839Y007209D01*
X000815Y007339D01*
X000795Y007469D01*
X000779Y007600D01*
X000767Y007732D01*
X000759Y007863D01*
X000755Y007995D01*
X000755Y008127D01*
X000759Y008259D01*
X000767Y008390D01*
X000779Y008522D01*
X000795Y008653D01*
X000815Y008783D01*
X000839Y008913D01*
X000866Y009042D01*
X000898Y009170D01*
X000933Y009297D01*
X000972Y009423D01*
X001015Y009547D01*
X001062Y009671D01*
X001112Y009793D01*
X001166Y009913D01*
X001224Y010031D01*
X001285Y010148D01*
X001350Y010263D01*
X001418Y010376D01*
X001489Y010487D01*
X001564Y010596D01*
X001642Y010702D01*
X001723Y010806D01*
X001807Y010907D01*
X001894Y011006D01*
X001985Y011102D01*
X002078Y011196D01*
X002174Y011286D01*
X002272Y011374D01*
X002373Y011459D01*
X002477Y011540D01*
X002583Y011619D01*
X002691Y011694D01*
X002802Y011766D01*
X002915Y011834D01*
X003029Y011899D01*
X003146Y011961D01*
X003264Y012019D01*
X003384Y012073D01*
X003506Y012124D01*
X003629Y012171D01*
X003629Y013345D01*
X006621Y013345D01*
X006621Y012171D01*
X009625Y012351D02*
X009625Y011851D01*
X009875Y011601D01*
X009625Y011351D01*
X009625Y010851D01*
X009875Y010601D01*
X009625Y010351D01*
X009625Y009851D01*
X009875Y009601D01*
X009625Y009351D01*
X009625Y008851D01*
X009875Y008601D01*
X009625Y008351D01*
X009625Y007851D01*
X009875Y007601D01*
X009625Y007351D01*
X009625Y006851D01*
X009875Y006601D01*
X009625Y006351D01*
X009625Y005851D01*
X009875Y005601D01*
X009625Y005351D01*
X009625Y004851D01*
X009875Y004601D01*
X009625Y004351D01*
X009625Y003851D01*
X009875Y003601D01*
X009625Y003351D01*
X009625Y002851D01*
X009875Y002601D01*
X010375Y002601D01*
X010625Y002851D01*
X010625Y003351D01*
X010375Y003601D01*
X010625Y003851D01*
X010625Y004351D01*
X010375Y004601D01*
X010625Y004851D01*
X010625Y005351D01*
X010375Y005601D01*
X010625Y005851D01*
X010625Y006351D01*
X010375Y006601D01*
X010625Y006851D01*
X010625Y007351D01*
X010375Y007601D01*
X010625Y007851D01*
X010625Y008351D01*
X010375Y008601D01*
X010625Y008851D01*
X010625Y009351D01*
X010375Y009601D01*
X010625Y009851D01*
X010625Y010351D01*
X010375Y010601D01*
X010625Y010851D01*
X010625Y011351D01*
X010375Y011601D01*
X010625Y011851D01*
X010625Y012351D01*
X010375Y012601D01*
X009875Y012601D01*
X009625Y012351D01*
X010802Y010967D02*
X010802Y002896D01*
X011786Y002896D01*
X011786Y010967D01*
X010802Y010967D01*
X011800Y013451D02*
X013450Y013451D01*
X013512Y014001D02*
X013670Y014001D01*
X014080Y014001D02*
X014238Y014001D01*
X014300Y013451D02*
X015950Y013451D01*
X016800Y013451D02*
X018450Y013451D01*
X018512Y014001D02*
X018670Y014001D01*
X019080Y014001D02*
X019238Y014001D01*
X019300Y013451D02*
X020950Y013451D01*
X021012Y014001D02*
X021170Y014001D01*
X021653Y014360D02*
X021653Y016841D01*
X022597Y016841D01*
X022597Y014360D01*
X021653Y014360D01*
X022653Y014360D02*
X022653Y016841D01*
X023597Y016841D01*
X023597Y014360D01*
X022653Y014360D01*
X020238Y014001D02*
X020012Y014001D01*
X020950Y013451D02*
X020987Y013502D01*
X021022Y013555D01*
X021054Y013611D01*
X021082Y013668D01*
X021106Y013727D01*
X021127Y013787D01*
X021144Y013848D01*
X021158Y013910D01*
X021167Y013973D01*
X021173Y014036D01*
X021175Y014100D01*
X021173Y014164D01*
X021167Y014227D01*
X021158Y014290D01*
X021145Y014352D01*
X021127Y014413D01*
X021107Y014473D01*
X021082Y014532D01*
X021055Y014589D01*
X021023Y014645D01*
X020989Y014698D01*
X020951Y014749D01*
X020910Y014798D01*
X020866Y014844D01*
X020820Y014888D01*
X020771Y014929D01*
X020720Y014966D01*
X020666Y015001D01*
X020611Y015032D01*
X020554Y015060D01*
X020495Y015084D01*
X020435Y015104D01*
X019815Y015104D02*
X019755Y015084D01*
X019696Y015060D01*
X019639Y015032D01*
X019584Y015001D01*
X019530Y014966D01*
X019479Y014929D01*
X019430Y014888D01*
X019384Y014844D01*
X019340Y014798D01*
X019299Y014749D01*
X019261Y014698D01*
X019227Y014645D01*
X019196Y014589D01*
X019168Y014532D01*
X019143Y014473D01*
X019123Y014413D01*
X019105Y014352D01*
X019092Y014290D01*
X019083Y014227D01*
X019077Y014164D01*
X019075Y014100D01*
X019077Y014036D01*
X019083Y013973D01*
X019092Y013910D01*
X019106Y013848D01*
X019123Y013787D01*
X019144Y013727D01*
X019168Y013668D01*
X019196Y013611D01*
X019228Y013555D01*
X019263Y013502D01*
X019300Y013451D01*
X020625Y012351D02*
X020875Y012601D01*
X021375Y012601D01*
X021625Y012351D01*
X021625Y011851D01*
X021375Y011601D01*
X021625Y011351D01*
X021625Y010851D01*
X021375Y010601D01*
X021625Y010351D01*
X021625Y009851D01*
X021375Y009601D01*
X021625Y009351D01*
X021625Y008851D01*
X021375Y008601D01*
X021625Y008351D01*
X021625Y007851D01*
X021375Y007601D01*
X021625Y007351D01*
X021625Y006851D01*
X021375Y006601D01*
X021625Y006351D01*
X021625Y005851D01*
X021375Y005601D01*
X021625Y005351D01*
X021625Y004851D01*
X021375Y004601D01*
X021625Y004351D01*
X021625Y003851D01*
X021375Y003601D01*
X021625Y003351D01*
X021625Y002851D01*
X021375Y002601D01*
X020875Y002601D01*
X020625Y002851D01*
X020625Y003351D01*
X020875Y003601D01*
X020625Y003851D01*
X020625Y004351D01*
X020875Y004601D01*
X020625Y004851D01*
X020625Y005351D01*
X020875Y005601D01*
X020625Y005851D01*
X020625Y006351D01*
X020875Y006601D01*
X020625Y006851D01*
X020625Y007351D01*
X020875Y007601D01*
X020625Y007851D01*
X020625Y008351D01*
X020875Y008601D01*
X020625Y008851D01*
X020625Y009351D01*
X020875Y009601D01*
X020625Y009851D01*
X020625Y010351D01*
X020875Y010601D01*
X020625Y010851D01*
X020625Y011351D01*
X020875Y011601D01*
X020625Y011851D01*
X020625Y012351D01*
X020448Y010967D02*
X019464Y010967D01*
X019464Y002896D01*
X020448Y002896D01*
X020448Y010967D01*
X024629Y011171D02*
X024629Y012345D01*
X027621Y012345D01*
X027621Y011171D01*
X028625Y011351D02*
X028875Y011101D01*
X029375Y011101D01*
X029625Y011351D01*
X029625Y011851D01*
X029375Y012101D01*
X028875Y012101D01*
X028625Y011851D01*
X028625Y011351D01*
X030653Y010841D02*
X031597Y010841D01*
X031597Y008360D01*
X030653Y008360D01*
X030653Y010841D01*
X024629Y011171D02*
X024506Y011124D01*
X024384Y011073D01*
X024264Y011019D01*
X024146Y010961D01*
X024029Y010899D01*
X023915Y010834D01*
X023802Y010766D01*
X023691Y010694D01*
X023583Y010619D01*
X023477Y010540D01*
X023373Y010459D01*
X023272Y010374D01*
X023174Y010286D01*
X023078Y010196D01*
X022985Y010102D01*
X022894Y010006D01*
X022807Y009907D01*
X022723Y009806D01*
X022642Y009702D01*
X022564Y009596D01*
X022489Y009487D01*
X022418Y009376D01*
X022350Y009263D01*
X022285Y009148D01*
X022224Y009031D01*
X022166Y008913D01*
X022112Y008793D01*
X022062Y008671D01*
X022015Y008547D01*
X021972Y008423D01*
X021933Y008297D01*
X021898Y008170D01*
X021866Y008042D01*
X021839Y007913D01*
X021815Y007783D01*
X021795Y007653D01*
X021779Y007522D01*
X021767Y007390D01*
X021759Y007259D01*
X021755Y007127D01*
X021755Y006995D01*
X021759Y006863D01*
X021767Y006732D01*
X021779Y006600D01*
X021795Y006469D01*
X021815Y006339D01*
X021839Y006209D01*
X021866Y006080D01*
X021898Y005952D01*
X021933Y005825D01*
X021972Y005699D01*
X022015Y005575D01*
X022062Y005451D01*
X022112Y005329D01*
X022166Y005209D01*
X022224Y005091D01*
X022285Y004974D01*
X022350Y004859D01*
X022418Y004746D01*
X022489Y004635D01*
X022564Y004526D01*
X022642Y004420D01*
X022723Y004316D01*
X022807Y004215D01*
X022894Y004116D01*
X022985Y004020D01*
X023078Y003926D01*
X023174Y003836D01*
X023272Y003748D01*
X023373Y003663D01*
X023477Y003582D01*
X023583Y003503D01*
X023691Y003428D01*
X023802Y003356D01*
X023915Y003288D01*
X024029Y003223D01*
X024146Y003161D01*
X024264Y003103D01*
X024384Y003049D01*
X024506Y002998D01*
X024629Y002951D01*
X027621Y002951D01*
X030125Y002851D02*
X030375Y002601D01*
X030875Y002601D01*
X031125Y002851D01*
X031125Y003351D01*
X030875Y003601D01*
X030375Y003601D01*
X030125Y003351D01*
X030125Y002851D01*
X023125Y002851D02*
X023125Y003351D01*
X022875Y003601D01*
X022375Y003601D01*
X022125Y003351D01*
X022125Y002851D01*
X022375Y002601D01*
X022875Y002601D01*
X023125Y002851D01*
X027621Y002951D02*
X027744Y002998D01*
X027866Y003049D01*
X027986Y003103D01*
X028104Y003161D01*
X028221Y003223D01*
X028335Y003288D01*
X028448Y003356D01*
X028559Y003428D01*
X028667Y003503D01*
X028773Y003582D01*
X028877Y003663D01*
X028978Y003748D01*
X029076Y003836D01*
X029172Y003926D01*
X029265Y004020D01*
X029356Y004116D01*
X029443Y004215D01*
X029527Y004316D01*
X029608Y004420D01*
X029686Y004526D01*
X029761Y004635D01*
X029832Y004746D01*
X029900Y004859D01*
X029965Y004974D01*
X030026Y005091D01*
X030084Y005209D01*
X030138Y005329D01*
X030188Y005451D01*
X030235Y005575D01*
X030278Y005699D01*
X030317Y005825D01*
X030352Y005952D01*
X030384Y006080D01*
X030411Y006209D01*
X030435Y006339D01*
X030455Y006469D01*
X030471Y006600D01*
X030483Y006732D01*
X030491Y006863D01*
X030495Y006995D01*
X030495Y007127D01*
X030491Y007259D01*
X030483Y007390D01*
X030471Y007522D01*
X030455Y007653D01*
X030435Y007783D01*
X030411Y007913D01*
X030384Y008042D01*
X030352Y008170D01*
X030317Y008297D01*
X030278Y008423D01*
X030235Y008547D01*
X030188Y008671D01*
X030138Y008793D01*
X030084Y008913D01*
X030026Y009031D01*
X029965Y009148D01*
X029900Y009263D01*
X029832Y009376D01*
X029761Y009487D01*
X029686Y009596D01*
X029608Y009702D01*
X029527Y009806D01*
X029443Y009907D01*
X029356Y010006D01*
X029265Y010102D01*
X029172Y010196D01*
X029076Y010286D01*
X028978Y010374D01*
X028877Y010459D01*
X028773Y010540D01*
X028667Y010619D01*
X028559Y010694D01*
X028448Y010766D01*
X028335Y010834D01*
X028221Y010899D01*
X028104Y010961D01*
X027986Y011019D01*
X027866Y011073D01*
X027744Y011124D01*
X027621Y011171D01*
X017738Y014001D02*
X017512Y014001D01*
X018450Y013451D02*
X018487Y013502D01*
X018522Y013555D01*
X018554Y013611D01*
X018582Y013668D01*
X018606Y013727D01*
X018627Y013787D01*
X018644Y013848D01*
X018658Y013910D01*
X018667Y013973D01*
X018673Y014036D01*
X018675Y014100D01*
X018673Y014164D01*
X018667Y014227D01*
X018658Y014290D01*
X018645Y014352D01*
X018627Y014413D01*
X018607Y014473D01*
X018582Y014532D01*
X018555Y014589D01*
X018523Y014645D01*
X018489Y014698D01*
X018451Y014749D01*
X018410Y014798D01*
X018366Y014844D01*
X018320Y014888D01*
X018271Y014929D01*
X018220Y014966D01*
X018166Y015001D01*
X018111Y015032D01*
X018054Y015060D01*
X017995Y015084D01*
X017935Y015104D01*
X017315Y015104D02*
X017255Y015084D01*
X017196Y015060D01*
X017139Y015032D01*
X017084Y015001D01*
X017030Y014966D01*
X016979Y014929D01*
X016930Y014888D01*
X016884Y014844D01*
X016840Y014798D01*
X016799Y014749D01*
X016761Y014698D01*
X016727Y014645D01*
X016696Y014589D01*
X016668Y014532D01*
X016643Y014473D01*
X016623Y014413D01*
X016605Y014352D01*
X016592Y014290D01*
X016583Y014227D01*
X016577Y014164D01*
X016575Y014100D01*
X016577Y014036D01*
X016583Y013973D01*
X016592Y013910D01*
X016606Y013848D01*
X016623Y013787D01*
X016644Y013727D01*
X016668Y013668D01*
X016696Y013611D01*
X016728Y013555D01*
X016763Y013502D01*
X016800Y013451D01*
X016738Y014001D02*
X016580Y014001D01*
X016170Y014001D02*
X016012Y014001D01*
X015238Y014001D02*
X015012Y014001D01*
X015950Y013451D02*
X015987Y013502D01*
X016022Y013555D01*
X016054Y013611D01*
X016082Y013668D01*
X016106Y013727D01*
X016127Y013787D01*
X016144Y013848D01*
X016158Y013910D01*
X016167Y013973D01*
X016173Y014036D01*
X016175Y014100D01*
X016173Y014164D01*
X016167Y014227D01*
X016158Y014290D01*
X016145Y014352D01*
X016127Y014413D01*
X016107Y014473D01*
X016082Y014532D01*
X016055Y014589D01*
X016023Y014645D01*
X015989Y014698D01*
X015951Y014749D01*
X015910Y014798D01*
X015866Y014844D01*
X015820Y014888D01*
X015771Y014929D01*
X015720Y014966D01*
X015666Y015001D01*
X015611Y015032D01*
X015554Y015060D01*
X015495Y015084D01*
X015435Y015104D01*
X014815Y015104D02*
X014755Y015084D01*
X014696Y015060D01*
X014639Y015032D01*
X014584Y015001D01*
X014530Y014966D01*
X014479Y014929D01*
X014430Y014888D01*
X014384Y014844D01*
X014340Y014798D01*
X014299Y014749D01*
X014261Y014698D01*
X014227Y014645D01*
X014196Y014589D01*
X014168Y014532D01*
X014143Y014473D01*
X014123Y014413D01*
X014105Y014352D01*
X014092Y014290D01*
X014083Y014227D01*
X014077Y014164D01*
X014075Y014100D01*
X014077Y014036D01*
X014083Y013973D01*
X014092Y013910D01*
X014106Y013848D01*
X014123Y013787D01*
X014144Y013727D01*
X014168Y013668D01*
X014196Y013611D01*
X014228Y013555D01*
X014263Y013502D01*
X014300Y013451D01*
X012738Y014001D02*
X012512Y014001D01*
X013450Y013451D02*
X013487Y013502D01*
X013522Y013555D01*
X013554Y013611D01*
X013582Y013668D01*
X013606Y013727D01*
X013627Y013787D01*
X013644Y013848D01*
X013658Y013910D01*
X013667Y013973D01*
X013673Y014036D01*
X013675Y014100D01*
X013673Y014164D01*
X013667Y014227D01*
X013658Y014290D01*
X013645Y014352D01*
X013627Y014413D01*
X013607Y014473D01*
X013582Y014532D01*
X013555Y014589D01*
X013523Y014645D01*
X013489Y014698D01*
X013451Y014749D01*
X013410Y014798D01*
X013366Y014844D01*
X013320Y014888D01*
X013271Y014929D01*
X013220Y014966D01*
X013166Y015001D01*
X013111Y015032D01*
X013054Y015060D01*
X012995Y015084D01*
X012935Y015104D01*
X012315Y015104D02*
X012255Y015084D01*
X012196Y015060D01*
X012139Y015032D01*
X012084Y015001D01*
X012030Y014966D01*
X011979Y014929D01*
X011930Y014888D01*
X011884Y014844D01*
X011840Y014798D01*
X011799Y014749D01*
X011761Y014698D01*
X011727Y014645D01*
X011696Y014589D01*
X011668Y014532D01*
X011643Y014473D01*
X011623Y014413D01*
X011605Y014352D01*
X011592Y014290D01*
X011583Y014227D01*
X011577Y014164D01*
X011575Y014100D01*
X011577Y014036D01*
X011583Y013973D01*
X011592Y013910D01*
X011606Y013848D01*
X011623Y013787D01*
X011644Y013727D01*
X011668Y013668D01*
X011696Y013611D01*
X011728Y013555D01*
X011763Y013502D01*
X011800Y013451D01*
X011738Y014001D02*
X011580Y014001D01*
X009125Y015851D02*
X008875Y015601D01*
X008375Y015601D01*
X008125Y015851D01*
X007875Y015601D01*
X007375Y015601D01*
X007125Y015851D01*
X006875Y015601D01*
X006375Y015601D01*
X006125Y015851D01*
X006125Y016351D01*
X006375Y016601D01*
X006875Y016601D01*
X007125Y016351D01*
X007375Y016601D01*
X007875Y016601D01*
X008125Y016351D01*
X008375Y016601D01*
X008875Y016601D01*
X009125Y016351D01*
X009125Y015851D01*
X009335Y016609D02*
X009265Y016680D01*
X009265Y016820D01*
X009335Y016890D01*
X009475Y016890D02*
X009475Y016750D01*
X009475Y016890D02*
X009615Y016890D01*
X009685Y016820D01*
X009685Y016680D01*
X009615Y016609D01*
X009335Y016609D01*
X009265Y017070D02*
X009265Y017280D01*
X009335Y017350D01*
X009475Y017350D01*
X009545Y017280D01*
X009545Y017070D01*
X009545Y017210D02*
X009685Y017350D01*
X009685Y017530D02*
X009265Y017530D01*
X009685Y017810D01*
X009265Y017810D01*
X009265Y017070D02*
X009685Y017070D01*
X002985Y017070D02*
X002985Y017350D01*
X002985Y017530D02*
X002565Y017530D01*
X002775Y017600D02*
X002985Y017810D01*
X002845Y017530D02*
X002565Y017810D01*
X002565Y017070D02*
X002985Y017070D01*
X002915Y016890D02*
X002985Y016820D01*
X002985Y016609D01*
X002565Y016609D01*
X002565Y016820D01*
X002635Y016890D01*
X002705Y016890D01*
X002775Y016820D01*
X002775Y016609D01*
X002775Y016820D02*
X002845Y016890D01*
X002915Y016890D01*
X002375Y013601D02*
X001875Y013601D01*
X001625Y013351D01*
X001625Y012851D01*
X001875Y012601D01*
X001625Y012351D01*
X001625Y011851D01*
X001875Y011601D01*
X002375Y011601D01*
X002625Y011851D01*
X002625Y012351D01*
X002375Y012601D01*
X002625Y012851D01*
X002625Y013351D01*
X002375Y013601D01*
D13*
X001477Y004356D02*
X001477Y004206D01*
X001427Y004206D02*
X001527Y004206D01*
X001427Y004306D02*
X001477Y004356D01*
X001380Y004331D02*
X001355Y004356D01*
X001305Y004356D01*
X001280Y004331D01*
X001280Y004231D01*
X001305Y004206D01*
X001355Y004206D01*
X001380Y004231D01*
X003964Y003796D02*
X003964Y003696D01*
X003964Y003649D02*
X004114Y003649D01*
X003964Y003549D01*
X004114Y003549D01*
X004089Y003501D02*
X003989Y003501D01*
X003964Y003476D01*
X003964Y003426D01*
X003989Y003401D01*
X004089Y003401D01*
X004114Y003426D01*
X004114Y003476D01*
X004089Y003501D01*
X004114Y003354D02*
X004064Y003304D01*
X004064Y003329D02*
X004064Y003254D01*
X004114Y003254D02*
X003964Y003254D01*
X003964Y003329D01*
X003989Y003354D01*
X004039Y003354D01*
X004064Y003329D01*
X003964Y003207D02*
X003964Y003107D01*
X004114Y003107D01*
X004039Y003107D02*
X004039Y003157D01*
X004039Y003059D02*
X004039Y002959D01*
X004114Y002912D02*
X003964Y002812D01*
X003989Y002765D02*
X003964Y002740D01*
X003964Y002665D01*
X004114Y002665D01*
X004064Y002665D02*
X004064Y002740D01*
X004039Y002765D01*
X003989Y002765D01*
X004064Y002715D02*
X004114Y002765D01*
X004114Y002812D02*
X003964Y002912D01*
X004720Y002304D02*
X004870Y002304D01*
X004870Y002254D02*
X004870Y002354D01*
X004770Y002254D02*
X004720Y002304D01*
X004720Y002207D02*
X004720Y002107D01*
X004720Y002157D02*
X004870Y002157D01*
X004870Y002060D02*
X004770Y002060D01*
X004720Y002010D01*
X004770Y001960D01*
X004870Y001960D01*
X004845Y001912D02*
X004870Y001887D01*
X004870Y001812D01*
X004720Y001812D01*
X004720Y001887D01*
X004745Y001912D01*
X004770Y001912D01*
X004795Y001887D01*
X004795Y001812D01*
X004795Y001887D02*
X004820Y001912D01*
X004845Y001912D01*
X004795Y001960D02*
X004795Y002060D01*
X005089Y002388D02*
X005089Y002538D01*
X005165Y002538D01*
X005190Y002513D01*
X005190Y002463D01*
X005165Y002438D01*
X005089Y002438D01*
X005140Y002438D02*
X005190Y002388D01*
X005237Y002388D02*
X005337Y002538D01*
X005384Y002463D02*
X005484Y002463D01*
X005531Y002463D02*
X005607Y002463D01*
X005632Y002438D01*
X005632Y002413D01*
X005607Y002388D01*
X005531Y002388D01*
X005531Y002538D01*
X005607Y002538D01*
X005632Y002513D01*
X005632Y002488D01*
X005607Y002463D01*
X005679Y002463D02*
X005779Y002463D01*
X005779Y002488D02*
X005779Y002388D01*
X005826Y002413D02*
X005851Y002388D01*
X005901Y002388D01*
X005926Y002413D01*
X005973Y002438D02*
X006074Y002538D01*
X005973Y002538D02*
X005973Y002388D01*
X005998Y002463D02*
X006074Y002388D01*
X005926Y002513D02*
X005901Y002538D01*
X005851Y002538D01*
X005826Y002513D01*
X005826Y002413D01*
X005779Y002488D02*
X005729Y002538D01*
X005679Y002488D01*
X005679Y002388D01*
X005337Y002388D02*
X005237Y002538D01*
X006141Y003687D02*
X006141Y003837D01*
X006091Y003837D02*
X006191Y003837D01*
X006239Y003837D02*
X006339Y003687D01*
X006386Y003762D02*
X006486Y003762D01*
X006533Y003762D02*
X006608Y003762D01*
X006633Y003737D01*
X006633Y003712D01*
X006608Y003687D01*
X006533Y003687D01*
X006533Y003837D01*
X006608Y003837D01*
X006633Y003812D01*
X006633Y003787D01*
X006608Y003762D01*
X006681Y003762D02*
X006781Y003762D01*
X006781Y003787D02*
X006781Y003687D01*
X006828Y003712D02*
X006853Y003687D01*
X006903Y003687D01*
X006928Y003712D01*
X006975Y003737D02*
X007075Y003837D01*
X006975Y003837D02*
X006975Y003687D01*
X007000Y003762D02*
X007075Y003687D01*
X006928Y003812D02*
X006903Y003837D01*
X006853Y003837D01*
X006828Y003812D01*
X006828Y003712D01*
X006781Y003787D02*
X006731Y003837D01*
X006681Y003787D01*
X006681Y003687D01*
X006339Y003837D02*
X006239Y003687D01*
X007079Y002528D02*
X007179Y002528D01*
X007227Y002528D02*
X007327Y002378D01*
X007374Y002453D02*
X007474Y002453D01*
X007521Y002453D02*
X007571Y002453D01*
X007521Y002528D02*
X007621Y002528D01*
X007669Y002528D02*
X007669Y002378D01*
X007669Y002428D02*
X007744Y002428D01*
X007769Y002453D01*
X007769Y002503D01*
X007744Y002528D01*
X007669Y002528D01*
X007719Y002428D02*
X007769Y002378D01*
X007816Y002403D02*
X007841Y002378D01*
X007891Y002378D01*
X007916Y002403D01*
X007916Y002503D01*
X007891Y002528D01*
X007841Y002528D01*
X007816Y002503D01*
X007816Y002403D01*
X007963Y002378D02*
X007963Y002528D01*
X008063Y002378D01*
X008063Y002528D01*
X008111Y002528D02*
X008211Y002528D01*
X008161Y002528D02*
X008161Y002378D01*
X007521Y002378D02*
X007521Y002528D01*
X007327Y002528D02*
X007227Y002378D01*
X007129Y002378D02*
X007129Y002528D01*
X008289Y003626D02*
X008364Y003626D01*
X008389Y003651D01*
X008389Y003676D01*
X008364Y003701D01*
X008289Y003701D01*
X008289Y003626D02*
X008289Y003776D01*
X008364Y003776D01*
X008389Y003751D01*
X008389Y003726D01*
X008364Y003701D01*
X008436Y003626D02*
X008537Y003626D01*
X008584Y003626D02*
X008634Y003626D01*
X008609Y003626D02*
X008609Y003776D01*
X008584Y003776D02*
X008634Y003776D01*
X008682Y003776D02*
X008782Y003626D01*
X008782Y003776D01*
X008829Y003776D02*
X008829Y003626D01*
X008829Y003676D02*
X008929Y003776D01*
X008854Y003701D02*
X008929Y003626D01*
X008682Y003626D02*
X008682Y003776D01*
X008436Y003776D02*
X008436Y003626D01*
X012130Y003631D02*
X012155Y003606D01*
X012205Y003606D01*
X012230Y003631D01*
X012230Y003756D01*
X012277Y003731D02*
X012302Y003756D01*
X012352Y003756D01*
X012377Y003731D01*
X012425Y003706D02*
X012475Y003756D01*
X012475Y003606D01*
X012425Y003606D02*
X012525Y003606D01*
X012377Y003631D02*
X012377Y003656D01*
X012352Y003681D01*
X012302Y003681D01*
X012277Y003706D01*
X012277Y003731D01*
X012327Y003781D02*
X012327Y003581D01*
X012302Y003606D02*
X012352Y003606D01*
X012377Y003631D01*
X012302Y003606D02*
X012277Y003631D01*
X012130Y003631D02*
X012130Y003756D01*
X004114Y003746D02*
X003964Y003746D01*
X025720Y001329D02*
X025720Y001279D01*
X025745Y001254D01*
X025720Y001207D02*
X025720Y001107D01*
X025720Y001157D02*
X025870Y001157D01*
X025870Y001060D02*
X025770Y001060D01*
X025720Y001010D01*
X025770Y000960D01*
X025870Y000960D01*
X025845Y000912D02*
X025870Y000887D01*
X025870Y000812D01*
X025720Y000812D01*
X025720Y000887D01*
X025745Y000912D01*
X025770Y000912D01*
X025795Y000887D01*
X025795Y000812D01*
X025795Y000887D02*
X025820Y000912D01*
X025845Y000912D01*
X025795Y000960D02*
X025795Y001060D01*
X025870Y001254D02*
X025770Y001354D01*
X025745Y001354D01*
X025720Y001329D01*
X025870Y001354D02*
X025870Y001254D01*
D14*
X020380Y002671D02*
X020305Y002596D01*
X020380Y002671D02*
X020380Y002746D01*
X020305Y002821D01*
X019930Y002821D01*
X019930Y002746D02*
X019930Y002896D01*
X019930Y003056D02*
X019930Y003281D01*
X020005Y003356D01*
X020155Y003356D01*
X020230Y003281D01*
X020230Y003056D01*
X020380Y003056D02*
X019930Y003056D01*
X020005Y003516D02*
X019930Y003591D01*
X019930Y003742D01*
X020005Y003817D01*
X020080Y003817D01*
X020380Y003516D01*
X020380Y003817D01*
X030080Y008376D02*
X030080Y008511D01*
X030125Y008556D01*
X030215Y008556D01*
X030260Y008511D01*
X030260Y008376D01*
X030260Y008466D02*
X030350Y008556D01*
X030305Y008670D02*
X030350Y008715D01*
X030350Y008805D01*
X030305Y008850D01*
X030260Y008850D01*
X030215Y008805D01*
X030215Y008760D01*
X030215Y008805D02*
X030170Y008850D01*
X030125Y008850D01*
X030080Y008805D01*
X030080Y008715D01*
X030125Y008670D01*
X030080Y008376D02*
X030350Y008376D01*
X030980Y008771D02*
X031025Y008726D01*
X030980Y008771D02*
X030980Y008861D01*
X031025Y008906D01*
X031070Y008906D01*
X031250Y008726D01*
X031250Y008906D01*
X031205Y009020D02*
X031025Y009200D01*
X031205Y009200D01*
X031250Y009155D01*
X031250Y009065D01*
X031205Y009020D01*
X031025Y009020D01*
X030980Y009065D01*
X030980Y009155D01*
X031025Y009200D01*
X030980Y009315D02*
X031250Y009315D01*
X031160Y009315D02*
X031070Y009450D01*
X031160Y009315D02*
X031250Y009450D01*
X031325Y012251D02*
X031325Y012951D01*
X031625Y012951D01*
X031925Y012951D01*
X031925Y012801D01*
X031925Y012251D01*
X031325Y012251D01*
X031325Y012951D02*
X031325Y013251D01*
X031925Y013251D01*
X031625Y012951D01*
X031325Y013251D01*
X031325Y013951D01*
X031925Y013951D01*
X031925Y013401D01*
X031925Y013251D01*
X031925Y012951D01*
X031925Y012801D02*
X031959Y012803D01*
X031992Y012809D01*
X032024Y012818D01*
X032055Y012831D01*
X032085Y012847D01*
X032112Y012866D01*
X032137Y012889D01*
X032160Y012914D01*
X032179Y012941D01*
X032195Y012971D01*
X032208Y013002D01*
X032217Y013034D01*
X032223Y013067D01*
X032225Y013101D01*
X032223Y013135D01*
X032217Y013168D01*
X032208Y013200D01*
X032195Y013231D01*
X032179Y013261D01*
X032160Y013288D01*
X032137Y013313D01*
X032112Y013336D01*
X032085Y013355D01*
X032055Y013371D01*
X032024Y013384D01*
X031992Y013393D01*
X031959Y013399D01*
X031925Y013401D01*
X032125Y014601D02*
X031125Y014601D01*
X031125Y017601D01*
X032125Y017601D01*
X032125Y016601D01*
X032125Y015601D01*
X032125Y014601D01*
X032125Y015601D02*
X032169Y015603D01*
X032212Y015609D01*
X032254Y015618D01*
X032296Y015631D01*
X032336Y015648D01*
X032375Y015668D01*
X032412Y015691D01*
X032446Y015718D01*
X032479Y015747D01*
X032508Y015780D01*
X032535Y015814D01*
X032558Y015851D01*
X032578Y015890D01*
X032595Y015930D01*
X032608Y015972D01*
X032617Y016014D01*
X032623Y016057D01*
X032625Y016101D01*
X032623Y016145D01*
X032617Y016188D01*
X032608Y016230D01*
X032595Y016272D01*
X032578Y016312D01*
X032558Y016351D01*
X032535Y016388D01*
X032508Y016422D01*
X032479Y016455D01*
X032446Y016484D01*
X032412Y016511D01*
X032375Y016534D01*
X032336Y016554D01*
X032296Y016571D01*
X032254Y016584D01*
X032212Y016593D01*
X032169Y016599D01*
X032125Y016601D01*
X029000Y016726D02*
X029000Y016801D01*
X028925Y016876D01*
X028775Y016876D01*
X028700Y016801D01*
X029000Y016726D02*
X028700Y016426D01*
X029000Y016426D01*
X025911Y017876D02*
X025610Y017876D01*
X025761Y017876D02*
X025761Y018326D01*
X025610Y018176D01*
X025450Y018251D02*
X025375Y018326D01*
X025225Y018326D01*
X025150Y018251D01*
X025150Y018176D01*
X025225Y018101D01*
X025375Y018101D01*
X025450Y018026D01*
X025450Y017951D01*
X025375Y017876D01*
X025225Y017876D01*
X025150Y017951D01*
X025250Y016876D02*
X025250Y016426D01*
X025100Y016426D02*
X025400Y016426D01*
X025100Y016726D02*
X025250Y016876D01*
X023250Y015450D02*
X023160Y015315D01*
X023070Y015450D01*
X022980Y015315D02*
X023250Y015315D01*
X023205Y015200D02*
X023250Y015155D01*
X023250Y015065D01*
X023205Y015020D01*
X023025Y015200D01*
X023205Y015200D01*
X023205Y015020D02*
X023025Y015020D01*
X022980Y015065D01*
X022980Y015155D01*
X023025Y015200D01*
X023025Y014906D02*
X022980Y014861D01*
X022980Y014771D01*
X023025Y014726D01*
X023025Y014906D02*
X023070Y014906D01*
X023250Y014726D01*
X023250Y014906D01*
X022350Y014850D02*
X022350Y014670D01*
X022350Y014760D02*
X022080Y014760D01*
X022170Y014670D01*
X022250Y014726D02*
X022070Y014906D01*
X022025Y014906D01*
X021980Y014861D01*
X021980Y014771D01*
X022025Y014726D01*
X022125Y014556D02*
X022215Y014556D01*
X022260Y014511D01*
X022260Y014376D01*
X022260Y014466D02*
X022350Y014556D01*
X022350Y014376D02*
X022080Y014376D01*
X022080Y014511D01*
X022125Y014556D01*
X022250Y014726D02*
X022250Y014906D01*
X022205Y015020D02*
X022025Y015200D01*
X022205Y015200D01*
X022250Y015155D01*
X022250Y015065D01*
X022205Y015020D01*
X022025Y015020D01*
X021980Y015065D01*
X021980Y015155D01*
X022025Y015200D01*
X021980Y015315D02*
X022250Y015315D01*
X022160Y015315D02*
X022070Y015450D01*
X022160Y015315D02*
X022250Y015450D01*
X021224Y016042D02*
X021226Y016056D01*
X021232Y016070D01*
X021240Y016082D01*
X021252Y016090D01*
X021266Y016096D01*
X021280Y016098D01*
X021294Y016096D01*
X021308Y016090D01*
X021320Y016082D01*
X021328Y016070D01*
X021334Y016056D01*
X021336Y016042D01*
X021334Y016028D01*
X021328Y016014D01*
X021320Y016002D01*
X021308Y015994D01*
X021294Y015988D01*
X021280Y015986D01*
X021266Y015988D01*
X021252Y015994D01*
X021240Y016002D01*
X021232Y016014D01*
X021226Y016028D01*
X021224Y016042D01*
X021109Y016116D02*
X020716Y016116D01*
X021109Y016510D01*
X021109Y016116D01*
X020716Y016116D02*
X019141Y016116D01*
X019141Y018085D01*
X021109Y018085D01*
X021109Y016510D01*
X019298Y017101D02*
X019300Y017158D01*
X019306Y017215D01*
X019316Y017271D01*
X019329Y017327D01*
X019347Y017381D01*
X019368Y017434D01*
X019393Y017485D01*
X019421Y017535D01*
X019453Y017582D01*
X019487Y017628D01*
X019525Y017670D01*
X019566Y017710D01*
X019609Y017748D01*
X019655Y017782D01*
X019703Y017812D01*
X019753Y017840D01*
X019805Y017864D01*
X019859Y017884D01*
X019913Y017900D01*
X019969Y017913D01*
X020025Y017922D01*
X020082Y017927D01*
X020139Y017928D01*
X020196Y017925D01*
X020253Y017918D01*
X020309Y017907D01*
X020364Y017893D01*
X020418Y017874D01*
X020471Y017852D01*
X020522Y017827D01*
X020571Y017797D01*
X020618Y017765D01*
X020663Y017729D01*
X020705Y017691D01*
X020744Y017649D01*
X020780Y017605D01*
X020814Y017559D01*
X020844Y017510D01*
X020870Y017460D01*
X020893Y017408D01*
X020912Y017354D01*
X020928Y017299D01*
X020940Y017243D01*
X020948Y017186D01*
X020952Y017130D01*
X020952Y017072D01*
X020948Y017016D01*
X020940Y016959D01*
X020928Y016903D01*
X020912Y016848D01*
X020893Y016794D01*
X020870Y016742D01*
X020844Y016692D01*
X020814Y016643D01*
X020780Y016597D01*
X020744Y016553D01*
X020705Y016511D01*
X020663Y016473D01*
X020618Y016437D01*
X020571Y016405D01*
X020522Y016375D01*
X020471Y016350D01*
X020418Y016328D01*
X020364Y016309D01*
X020309Y016295D01*
X020253Y016284D01*
X020196Y016277D01*
X020139Y016274D01*
X020082Y016275D01*
X020025Y016280D01*
X019969Y016289D01*
X019913Y016302D01*
X019859Y016318D01*
X019805Y016338D01*
X019753Y016362D01*
X019703Y016390D01*
X019655Y016420D01*
X019609Y016454D01*
X019566Y016492D01*
X019525Y016532D01*
X019487Y016574D01*
X019453Y016620D01*
X019421Y016667D01*
X019393Y016717D01*
X019368Y016768D01*
X019347Y016821D01*
X019329Y016875D01*
X019316Y016931D01*
X019306Y016987D01*
X019300Y017044D01*
X019298Y017101D01*
X018109Y016510D02*
X017716Y016116D01*
X016141Y016116D01*
X016141Y018085D01*
X018109Y018085D01*
X018109Y016510D01*
X018109Y016116D01*
X017716Y016116D01*
X018224Y016042D02*
X018226Y016056D01*
X018232Y016070D01*
X018240Y016082D01*
X018252Y016090D01*
X018266Y016096D01*
X018280Y016098D01*
X018294Y016096D01*
X018308Y016090D01*
X018320Y016082D01*
X018328Y016070D01*
X018334Y016056D01*
X018336Y016042D01*
X018334Y016028D01*
X018328Y016014D01*
X018320Y016002D01*
X018308Y015994D01*
X018294Y015988D01*
X018280Y015986D01*
X018266Y015988D01*
X018252Y015994D01*
X018240Y016002D01*
X018232Y016014D01*
X018226Y016028D01*
X018224Y016042D01*
X016298Y017101D02*
X016300Y017158D01*
X016306Y017215D01*
X016316Y017271D01*
X016329Y017327D01*
X016347Y017381D01*
X016368Y017434D01*
X016393Y017485D01*
X016421Y017535D01*
X016453Y017582D01*
X016487Y017628D01*
X016525Y017670D01*
X016566Y017710D01*
X016609Y017748D01*
X016655Y017782D01*
X016703Y017812D01*
X016753Y017840D01*
X016805Y017864D01*
X016859Y017884D01*
X016913Y017900D01*
X016969Y017913D01*
X017025Y017922D01*
X017082Y017927D01*
X017139Y017928D01*
X017196Y017925D01*
X017253Y017918D01*
X017309Y017907D01*
X017364Y017893D01*
X017418Y017874D01*
X017471Y017852D01*
X017522Y017827D01*
X017571Y017797D01*
X017618Y017765D01*
X017663Y017729D01*
X017705Y017691D01*
X017744Y017649D01*
X017780Y017605D01*
X017814Y017559D01*
X017844Y017510D01*
X017870Y017460D01*
X017893Y017408D01*
X017912Y017354D01*
X017928Y017299D01*
X017940Y017243D01*
X017948Y017186D01*
X017952Y017130D01*
X017952Y017072D01*
X017948Y017016D01*
X017940Y016959D01*
X017928Y016903D01*
X017912Y016848D01*
X017893Y016794D01*
X017870Y016742D01*
X017844Y016692D01*
X017814Y016643D01*
X017780Y016597D01*
X017744Y016553D01*
X017705Y016511D01*
X017663Y016473D01*
X017618Y016437D01*
X017571Y016405D01*
X017522Y016375D01*
X017471Y016350D01*
X017418Y016328D01*
X017364Y016309D01*
X017309Y016295D01*
X017253Y016284D01*
X017196Y016277D01*
X017139Y016274D01*
X017082Y016275D01*
X017025Y016280D01*
X016969Y016289D01*
X016913Y016302D01*
X016859Y016318D01*
X016805Y016338D01*
X016753Y016362D01*
X016703Y016390D01*
X016655Y016420D01*
X016609Y016454D01*
X016566Y016492D01*
X016525Y016532D01*
X016487Y016574D01*
X016453Y016620D01*
X016421Y016667D01*
X016393Y016717D01*
X016368Y016768D01*
X016347Y016821D01*
X016329Y016875D01*
X016316Y016931D01*
X016306Y016987D01*
X016300Y017044D01*
X016298Y017101D01*
X015109Y016510D02*
X014716Y016116D01*
X013141Y016116D01*
X013141Y018085D01*
X015109Y018085D01*
X015109Y016510D01*
X015109Y016116D01*
X014716Y016116D01*
X015224Y016042D02*
X015226Y016056D01*
X015232Y016070D01*
X015240Y016082D01*
X015252Y016090D01*
X015266Y016096D01*
X015280Y016098D01*
X015294Y016096D01*
X015308Y016090D01*
X015320Y016082D01*
X015328Y016070D01*
X015334Y016056D01*
X015336Y016042D01*
X015334Y016028D01*
X015328Y016014D01*
X015320Y016002D01*
X015308Y015994D01*
X015294Y015988D01*
X015280Y015986D01*
X015266Y015988D01*
X015252Y015994D01*
X015240Y016002D01*
X015232Y016014D01*
X015226Y016028D01*
X015224Y016042D01*
X013298Y017101D02*
X013300Y017158D01*
X013306Y017215D01*
X013316Y017271D01*
X013329Y017327D01*
X013347Y017381D01*
X013368Y017434D01*
X013393Y017485D01*
X013421Y017535D01*
X013453Y017582D01*
X013487Y017628D01*
X013525Y017670D01*
X013566Y017710D01*
X013609Y017748D01*
X013655Y017782D01*
X013703Y017812D01*
X013753Y017840D01*
X013805Y017864D01*
X013859Y017884D01*
X013913Y017900D01*
X013969Y017913D01*
X014025Y017922D01*
X014082Y017927D01*
X014139Y017928D01*
X014196Y017925D01*
X014253Y017918D01*
X014309Y017907D01*
X014364Y017893D01*
X014418Y017874D01*
X014471Y017852D01*
X014522Y017827D01*
X014571Y017797D01*
X014618Y017765D01*
X014663Y017729D01*
X014705Y017691D01*
X014744Y017649D01*
X014780Y017605D01*
X014814Y017559D01*
X014844Y017510D01*
X014870Y017460D01*
X014893Y017408D01*
X014912Y017354D01*
X014928Y017299D01*
X014940Y017243D01*
X014948Y017186D01*
X014952Y017130D01*
X014952Y017072D01*
X014948Y017016D01*
X014940Y016959D01*
X014928Y016903D01*
X014912Y016848D01*
X014893Y016794D01*
X014870Y016742D01*
X014844Y016692D01*
X014814Y016643D01*
X014780Y016597D01*
X014744Y016553D01*
X014705Y016511D01*
X014663Y016473D01*
X014618Y016437D01*
X014571Y016405D01*
X014522Y016375D01*
X014471Y016350D01*
X014418Y016328D01*
X014364Y016309D01*
X014309Y016295D01*
X014253Y016284D01*
X014196Y016277D01*
X014139Y016274D01*
X014082Y016275D01*
X014025Y016280D01*
X013969Y016289D01*
X013913Y016302D01*
X013859Y016318D01*
X013805Y016338D01*
X013753Y016362D01*
X013703Y016390D01*
X013655Y016420D01*
X013609Y016454D01*
X013566Y016492D01*
X013525Y016532D01*
X013487Y016574D01*
X013453Y016620D01*
X013421Y016667D01*
X013393Y016717D01*
X013368Y016768D01*
X013347Y016821D01*
X013329Y016875D01*
X013316Y016931D01*
X013306Y016987D01*
X013300Y017044D01*
X013298Y017101D01*
X012109Y016510D02*
X011716Y016116D01*
X010141Y016116D01*
X010141Y018085D01*
X012109Y018085D01*
X012109Y016510D01*
X012109Y016116D01*
X011716Y016116D01*
X012224Y016042D02*
X012226Y016056D01*
X012232Y016070D01*
X012240Y016082D01*
X012252Y016090D01*
X012266Y016096D01*
X012280Y016098D01*
X012294Y016096D01*
X012308Y016090D01*
X012320Y016082D01*
X012328Y016070D01*
X012334Y016056D01*
X012336Y016042D01*
X012334Y016028D01*
X012328Y016014D01*
X012320Y016002D01*
X012308Y015994D01*
X012294Y015988D01*
X012280Y015986D01*
X012266Y015988D01*
X012252Y015994D01*
X012240Y016002D01*
X012232Y016014D01*
X012226Y016028D01*
X012224Y016042D01*
X010298Y017101D02*
X010300Y017158D01*
X010306Y017215D01*
X010316Y017271D01*
X010329Y017327D01*
X010347Y017381D01*
X010368Y017434D01*
X010393Y017485D01*
X010421Y017535D01*
X010453Y017582D01*
X010487Y017628D01*
X010525Y017670D01*
X010566Y017710D01*
X010609Y017748D01*
X010655Y017782D01*
X010703Y017812D01*
X010753Y017840D01*
X010805Y017864D01*
X010859Y017884D01*
X010913Y017900D01*
X010969Y017913D01*
X011025Y017922D01*
X011082Y017927D01*
X011139Y017928D01*
X011196Y017925D01*
X011253Y017918D01*
X011309Y017907D01*
X011364Y017893D01*
X011418Y017874D01*
X011471Y017852D01*
X011522Y017827D01*
X011571Y017797D01*
X011618Y017765D01*
X011663Y017729D01*
X011705Y017691D01*
X011744Y017649D01*
X011780Y017605D01*
X011814Y017559D01*
X011844Y017510D01*
X011870Y017460D01*
X011893Y017408D01*
X011912Y017354D01*
X011928Y017299D01*
X011940Y017243D01*
X011948Y017186D01*
X011952Y017130D01*
X011952Y017072D01*
X011948Y017016D01*
X011940Y016959D01*
X011928Y016903D01*
X011912Y016848D01*
X011893Y016794D01*
X011870Y016742D01*
X011844Y016692D01*
X011814Y016643D01*
X011780Y016597D01*
X011744Y016553D01*
X011705Y016511D01*
X011663Y016473D01*
X011618Y016437D01*
X011571Y016405D01*
X011522Y016375D01*
X011471Y016350D01*
X011418Y016328D01*
X011364Y016309D01*
X011309Y016295D01*
X011253Y016284D01*
X011196Y016277D01*
X011139Y016274D01*
X011082Y016275D01*
X011025Y016280D01*
X010969Y016289D01*
X010913Y016302D01*
X010859Y016318D01*
X010805Y016338D01*
X010753Y016362D01*
X010703Y016390D01*
X010655Y016420D01*
X010609Y016454D01*
X010566Y016492D01*
X010525Y016532D01*
X010487Y016574D01*
X010453Y016620D01*
X010421Y016667D01*
X010393Y016717D01*
X010368Y016768D01*
X010347Y016821D01*
X010329Y016875D01*
X010316Y016931D01*
X010306Y016987D01*
X010300Y017044D01*
X010298Y017101D01*
X009125Y017101D02*
X009125Y018101D01*
X003125Y018101D01*
X003125Y017101D01*
X009125Y017101D01*
X008936Y016931D02*
X008936Y016841D01*
X008890Y016796D01*
X008755Y016796D01*
X008755Y016706D02*
X008755Y016976D01*
X008890Y016976D01*
X008936Y016931D01*
X008845Y016796D02*
X008936Y016706D01*
X008551Y016706D02*
X008551Y016976D01*
X008461Y016976D02*
X008641Y016976D01*
X008346Y016931D02*
X008346Y016751D01*
X008301Y016706D01*
X008166Y016706D01*
X008166Y016976D01*
X008301Y016976D01*
X008346Y016931D01*
X007936Y016931D02*
X007936Y016751D01*
X007890Y016706D01*
X007800Y016706D01*
X007755Y016751D01*
X007755Y016931D01*
X007800Y016976D01*
X007890Y016976D01*
X007936Y016931D01*
X007641Y016976D02*
X007461Y016706D01*
X007641Y016706D02*
X007461Y016976D01*
X007346Y016976D02*
X007166Y016976D01*
X007256Y016976D02*
X007256Y016706D01*
X006944Y016706D02*
X006854Y016706D01*
X006899Y016706D02*
X006899Y016976D01*
X006854Y016976D02*
X006944Y016976D01*
X006739Y016976D02*
X006559Y016706D01*
X006444Y016706D02*
X006354Y016796D01*
X006399Y016796D02*
X006264Y016796D01*
X006264Y016706D02*
X006264Y016976D01*
X006399Y016976D01*
X006444Y016931D01*
X006444Y016841D01*
X006399Y016796D01*
X006559Y016976D02*
X006739Y016706D01*
X005936Y016751D02*
X005890Y016706D01*
X005800Y016706D01*
X005755Y016751D01*
X005755Y016931D01*
X005800Y016976D01*
X005890Y016976D01*
X005936Y016931D01*
X005641Y016931D02*
X005596Y016976D01*
X005506Y016976D01*
X005461Y016931D01*
X005461Y016751D01*
X005506Y016706D01*
X005596Y016706D01*
X005641Y016751D01*
X005346Y016796D02*
X005346Y016976D01*
X005166Y016976D02*
X005166Y016796D01*
X005256Y016706D01*
X005346Y016796D01*
X004936Y016796D02*
X004936Y016751D01*
X004890Y016706D01*
X004800Y016706D01*
X004755Y016751D01*
X004800Y016841D02*
X004890Y016841D01*
X004936Y016796D01*
X004936Y016931D02*
X004890Y016976D01*
X004800Y016976D01*
X004755Y016931D01*
X004755Y016886D01*
X004800Y016841D01*
X004641Y016976D02*
X004461Y016976D01*
X004551Y016976D02*
X004551Y016706D01*
X004346Y016751D02*
X004301Y016706D01*
X004211Y016706D01*
X004166Y016751D01*
X004166Y016931D01*
X004211Y016976D01*
X004301Y016976D01*
X004346Y016931D01*
X003936Y016931D02*
X003936Y016751D01*
X003890Y016706D01*
X003755Y016706D01*
X003755Y016976D01*
X003890Y016976D01*
X003936Y016931D01*
X003641Y016976D02*
X003641Y016706D01*
X003461Y016976D01*
X003461Y016706D01*
X003346Y016751D02*
X003346Y016841D01*
X003256Y016841D01*
X003166Y016931D02*
X003166Y016751D01*
X003211Y016706D01*
X003301Y016706D01*
X003346Y016751D01*
X003346Y016931D02*
X003301Y016976D01*
X003211Y016976D01*
X003166Y016931D01*
X001625Y017601D02*
X001625Y014601D01*
X000625Y014601D01*
X000625Y015601D01*
X000625Y016601D01*
X000625Y017601D01*
X001625Y017601D01*
X000625Y016601D02*
X000581Y016599D01*
X000538Y016593D01*
X000496Y016584D01*
X000454Y016571D01*
X000414Y016554D01*
X000375Y016534D01*
X000338Y016511D01*
X000304Y016484D01*
X000271Y016455D01*
X000242Y016422D01*
X000215Y016388D01*
X000192Y016351D01*
X000172Y016312D01*
X000155Y016272D01*
X000142Y016230D01*
X000133Y016188D01*
X000127Y016145D01*
X000125Y016101D01*
X000127Y016057D01*
X000133Y016014D01*
X000142Y015972D01*
X000155Y015930D01*
X000172Y015890D01*
X000192Y015851D01*
X000215Y015814D01*
X000242Y015780D01*
X000271Y015747D01*
X000304Y015718D01*
X000338Y015691D01*
X000375Y015668D01*
X000414Y015648D01*
X000454Y015631D01*
X000496Y015618D01*
X000538Y015609D01*
X000581Y015603D01*
X000625Y015601D01*
X000825Y013951D02*
X001425Y013951D01*
X001425Y013251D01*
X001125Y013251D01*
X000825Y013251D01*
X000825Y013401D01*
X000825Y013951D01*
X000825Y013251D02*
X000825Y012951D01*
X001125Y013251D01*
X001425Y012951D01*
X000825Y012951D01*
X000825Y012801D01*
X000825Y012251D01*
X001425Y012251D01*
X001425Y012951D01*
X001425Y013251D01*
X000825Y013401D02*
X000791Y013399D01*
X000758Y013393D01*
X000726Y013384D01*
X000695Y013371D01*
X000665Y013355D01*
X000638Y013336D01*
X000613Y013313D01*
X000590Y013288D01*
X000571Y013261D01*
X000555Y013231D01*
X000542Y013200D01*
X000533Y013168D01*
X000527Y013135D01*
X000525Y013101D01*
X000527Y013067D01*
X000533Y013034D01*
X000542Y013002D01*
X000555Y012971D01*
X000571Y012941D01*
X000590Y012914D01*
X000613Y012889D01*
X000638Y012866D01*
X000665Y012847D01*
X000695Y012831D01*
X000726Y012818D01*
X000758Y012809D01*
X000791Y012803D01*
X000825Y012801D01*
X002870Y012735D02*
X002870Y013035D01*
X002945Y013035D01*
X003245Y012735D01*
X003320Y012735D01*
X003320Y013035D01*
X003320Y013195D02*
X003320Y013495D01*
X003320Y013195D02*
X003245Y013195D01*
X002945Y013495D01*
X002870Y013495D01*
X002870Y013195D01*
X002945Y012575D02*
X003020Y012575D01*
X003095Y012500D01*
X003095Y012274D01*
X003320Y012274D02*
X003320Y012500D01*
X003245Y012575D01*
X003170Y012575D01*
X003095Y012500D01*
X002945Y012575D02*
X002870Y012500D01*
X002870Y012274D01*
X003320Y012274D01*
X007799Y014981D02*
X007874Y014906D01*
X007949Y014906D01*
X008024Y014981D01*
X008024Y015356D01*
X007949Y015356D02*
X008099Y015356D01*
X008259Y015356D02*
X008484Y015356D01*
X008559Y015281D01*
X008559Y015131D01*
X008484Y015056D01*
X008259Y015056D01*
X008259Y014906D02*
X008259Y015356D01*
X008720Y015131D02*
X009020Y015131D01*
X008945Y014906D02*
X008945Y015356D01*
X008720Y015131D01*
X011320Y012495D02*
X011320Y012195D01*
X011320Y012345D02*
X010870Y012345D01*
X011020Y012195D01*
X011095Y012035D02*
X011170Y011960D01*
X011170Y011735D01*
X011320Y011735D02*
X010870Y011735D01*
X010870Y011960D01*
X010945Y012035D01*
X011095Y012035D01*
X010870Y011575D02*
X010870Y011425D01*
X010870Y011500D02*
X011245Y011500D01*
X011320Y011425D01*
X011320Y011350D01*
X011245Y011274D01*
X021080Y014376D02*
X021080Y014511D01*
X021125Y014556D01*
X021215Y014556D01*
X021260Y014511D01*
X021260Y014376D01*
X021260Y014466D02*
X021350Y014556D01*
X021350Y014670D02*
X021170Y014850D01*
X021125Y014850D01*
X021080Y014805D01*
X021080Y014715D01*
X021125Y014670D01*
X021350Y014670D02*
X021350Y014850D01*
X021350Y014376D02*
X021080Y014376D01*
X025100Y013651D02*
X025175Y013726D01*
X025325Y013726D01*
X025400Y013651D01*
X025400Y013576D01*
X025325Y013501D01*
X025400Y013426D01*
X025400Y013351D01*
X025325Y013276D01*
X025175Y013276D01*
X025100Y013351D01*
X025250Y013501D02*
X025325Y013501D01*
X028750Y013501D02*
X029050Y013501D01*
X028975Y013276D02*
X028975Y013726D01*
X028750Y013501D01*
D15*
X027775Y014451D02*
X026475Y014451D01*
X026475Y015751D01*
X027775Y015751D01*
X027775Y014451D01*
X026825Y015101D02*
X026827Y015135D01*
X026833Y015169D01*
X026842Y015202D01*
X026856Y015233D01*
X026873Y015263D01*
X026893Y015291D01*
X026916Y015316D01*
X026942Y015339D01*
X026970Y015358D01*
X027000Y015374D01*
X027032Y015386D01*
X027065Y015395D01*
X027099Y015400D01*
X027134Y015401D01*
X027168Y015398D01*
X027201Y015391D01*
X027234Y015381D01*
X027265Y015366D01*
X027294Y015349D01*
X027321Y015328D01*
X027346Y015304D01*
X027368Y015277D01*
X027386Y015249D01*
X027401Y015218D01*
X027413Y015186D01*
X027421Y015152D01*
X027425Y015118D01*
X027425Y015084D01*
X027421Y015050D01*
X027413Y015016D01*
X027401Y014984D01*
X027386Y014953D01*
X027368Y014925D01*
X027346Y014898D01*
X027321Y014874D01*
X027294Y014853D01*
X027265Y014836D01*
X027234Y014821D01*
X027201Y014811D01*
X027168Y014804D01*
X027134Y014801D01*
X027099Y014802D01*
X027065Y014807D01*
X027032Y014816D01*
X027000Y014828D01*
X026970Y014844D01*
X026942Y014863D01*
X026916Y014886D01*
X026893Y014911D01*
X026873Y014939D01*
X026856Y014969D01*
X026842Y015000D01*
X026833Y015033D01*
X026827Y015067D01*
X026825Y015101D01*
X026725Y015101D02*
X026727Y015141D01*
X026733Y015180D01*
X026743Y015219D01*
X026756Y015256D01*
X026774Y015292D01*
X026795Y015326D01*
X026819Y015358D01*
X026846Y015387D01*
X026876Y015414D01*
X026908Y015437D01*
X026943Y015457D01*
X026979Y015473D01*
X027017Y015486D01*
X027056Y015495D01*
X027095Y015500D01*
X027135Y015501D01*
X027175Y015498D01*
X027214Y015491D01*
X027252Y015480D01*
X027290Y015466D01*
X027325Y015447D01*
X027358Y015426D01*
X027390Y015401D01*
X027418Y015373D01*
X027444Y015343D01*
X027466Y015310D01*
X027485Y015275D01*
X027501Y015238D01*
X027513Y015200D01*
X027521Y015161D01*
X027525Y015121D01*
X027525Y015081D01*
X027521Y015041D01*
X027513Y015002D01*
X027501Y014964D01*
X027485Y014927D01*
X027466Y014892D01*
X027444Y014859D01*
X027418Y014829D01*
X027390Y014801D01*
X027358Y014776D01*
X027325Y014755D01*
X027290Y014736D01*
X027252Y014722D01*
X027214Y014711D01*
X027175Y014704D01*
X027135Y014701D01*
X027095Y014702D01*
X027056Y014707D01*
X027017Y014716D01*
X026979Y014729D01*
X026943Y014745D01*
X026908Y014765D01*
X026876Y014788D01*
X026846Y014815D01*
X026819Y014844D01*
X026795Y014876D01*
X026774Y014910D01*
X026756Y014946D01*
X026743Y014983D01*
X026733Y015022D01*
X026727Y015061D01*
X026725Y015101D01*
X020873Y013355D02*
X020780Y013355D01*
X020826Y013355D02*
X020826Y013215D01*
X020726Y013215D02*
X020726Y013355D01*
X020632Y013355D02*
X020726Y013215D01*
X020632Y013215D02*
X020632Y013355D01*
X020578Y013332D02*
X020555Y013355D01*
X020508Y013355D01*
X020485Y013332D01*
X020485Y013239D01*
X020508Y013215D01*
X020555Y013215D01*
X020578Y013239D01*
X020578Y013332D01*
X020431Y013332D02*
X020431Y013285D01*
X020408Y013262D01*
X020338Y013262D01*
X020384Y013262D02*
X020431Y013215D01*
X020338Y013215D02*
X020338Y013355D01*
X020408Y013355D01*
X020431Y013332D01*
X020284Y013355D02*
X020190Y013355D01*
X020190Y013215D01*
X020136Y013215D02*
X020090Y013262D01*
X020136Y013239D02*
X020113Y013215D01*
X020066Y013215D01*
X020043Y013239D01*
X020043Y013332D01*
X020066Y013355D01*
X020113Y013355D01*
X020136Y013332D01*
X020136Y013239D01*
X020190Y013285D02*
X020237Y013285D01*
X017419Y013215D02*
X017349Y013285D01*
X017326Y013262D02*
X017419Y013355D01*
X017326Y013355D02*
X017326Y013215D01*
X017272Y013239D02*
X017249Y013215D01*
X017202Y013215D01*
X017179Y013239D01*
X017179Y013332D01*
X017202Y013355D01*
X017249Y013355D01*
X017272Y013332D01*
X017125Y013309D02*
X017125Y013215D01*
X017125Y013285D02*
X017031Y013285D01*
X017031Y013309D02*
X017078Y013355D01*
X017125Y013309D01*
X017031Y013309D02*
X017031Y013215D01*
X016978Y013239D02*
X016954Y013215D01*
X016884Y013215D01*
X016884Y013355D01*
X016954Y013355D01*
X016978Y013332D01*
X016978Y013309D01*
X016954Y013285D01*
X016884Y013285D01*
X016954Y013285D02*
X016978Y013262D01*
X016978Y013239D01*
X016830Y013239D02*
X016807Y013215D01*
X016760Y013215D01*
X016737Y013239D01*
X016737Y013332D01*
X016760Y013355D01*
X016807Y013355D01*
X016830Y013332D01*
X016830Y013239D01*
X016830Y013215D02*
X016783Y013262D01*
X015508Y013319D02*
X015414Y013225D01*
X015438Y013249D02*
X015508Y013179D01*
X015414Y013179D02*
X015414Y013319D01*
X015360Y013319D02*
X015360Y013179D01*
X015267Y013319D01*
X015267Y013179D01*
X015216Y013179D02*
X015169Y013179D01*
X015192Y013179D02*
X015192Y013319D01*
X015169Y013319D02*
X015216Y013319D01*
X015115Y013179D02*
X015022Y013179D01*
X015022Y013319D01*
X014968Y013295D02*
X014968Y013272D01*
X014944Y013249D01*
X014874Y013249D01*
X014874Y013319D02*
X014944Y013319D01*
X014968Y013295D01*
X014944Y013249D02*
X014968Y013225D01*
X014968Y013202D01*
X014944Y013179D01*
X014874Y013179D01*
X014874Y013319D01*
X014820Y013295D02*
X014820Y013202D01*
X014797Y013179D01*
X014750Y013179D01*
X014727Y013202D01*
X014727Y013295D01*
X014750Y013319D01*
X014797Y013319D01*
X014820Y013295D01*
X014774Y013225D02*
X014820Y013179D01*
X012922Y013200D02*
X012829Y013200D01*
X012829Y013340D01*
X012922Y013340D01*
X012876Y013270D02*
X012829Y013270D01*
X012775Y013247D02*
X012775Y013224D01*
X012752Y013200D01*
X012682Y013200D01*
X012682Y013340D01*
X012752Y013340D01*
X012775Y013317D01*
X012775Y013294D01*
X012752Y013270D01*
X012682Y013270D01*
X012752Y013270D02*
X012775Y013247D01*
X012630Y013200D02*
X012583Y013200D01*
X012607Y013200D02*
X012607Y013340D01*
X012630Y013340D02*
X012583Y013340D01*
X012530Y013340D02*
X012530Y013247D01*
X012483Y013200D01*
X012436Y013247D01*
X012436Y013340D01*
X012382Y013317D02*
X012382Y013224D01*
X012359Y013200D01*
X012312Y013200D01*
X012289Y013224D01*
X012289Y013317D01*
X012312Y013340D01*
X012359Y013340D01*
X012382Y013317D01*
X012336Y013247D02*
X012382Y013200D01*
D16*
X025800Y012701D03*
X028450Y012701D03*
X028450Y017501D03*
X025800Y017501D03*
D17*
X028115Y010801D02*
X028115Y010494D01*
X028268Y010341D01*
X028422Y010494D01*
X028422Y010801D01*
X028575Y010724D02*
X028575Y010417D01*
X028652Y010341D01*
X028806Y010341D01*
X028882Y010417D01*
X029036Y010417D02*
X029113Y010341D01*
X029266Y010341D01*
X029343Y010417D01*
X029496Y010341D02*
X029650Y010341D01*
X029573Y010341D02*
X029573Y010801D01*
X029496Y010801D02*
X029650Y010801D01*
X029803Y010724D02*
X029803Y010417D01*
X029880Y010341D01*
X030033Y010341D01*
X030110Y010417D01*
X030110Y010724D01*
X030033Y010801D01*
X029880Y010801D01*
X029803Y010724D01*
X029343Y010724D02*
X029266Y010801D01*
X029113Y010801D01*
X029036Y010724D01*
X029036Y010417D01*
X028882Y010724D02*
X028806Y010801D01*
X028652Y010801D01*
X028575Y010724D01*
X030115Y004301D02*
X030115Y003994D01*
X030268Y003841D01*
X030422Y003994D01*
X030422Y004301D01*
X030575Y004224D02*
X030575Y003917D01*
X030652Y003841D01*
X030806Y003841D01*
X030882Y003917D01*
X031036Y003917D02*
X031113Y003841D01*
X031266Y003841D01*
X031343Y003917D01*
X031036Y003917D02*
X031036Y004224D01*
X031113Y004301D01*
X031266Y004301D01*
X031343Y004224D01*
X030882Y004224D02*
X030806Y004301D01*
X030652Y004301D01*
X030575Y004224D01*
X023343Y004224D02*
X023343Y003917D01*
X023266Y003841D01*
X023036Y003841D01*
X023036Y004301D01*
X023266Y004301D01*
X023343Y004224D01*
X022882Y004301D02*
X022882Y003841D01*
X022575Y004301D01*
X022575Y003841D01*
X022422Y003917D02*
X022422Y004071D01*
X022268Y004071D01*
X022115Y004224D02*
X022115Y003917D01*
X022192Y003841D01*
X022345Y003841D01*
X022422Y003917D01*
X022422Y004224D02*
X022345Y004301D01*
X022192Y004301D01*
X022115Y004224D01*
D18*
X008590Y011737D02*
X008469Y011885D01*
X008500Y011945D01*
X008521Y012009D01*
X008711Y012029D01*
X008711Y012173D01*
X008521Y012192D01*
X008500Y012256D01*
X008469Y012316D01*
X008590Y012464D01*
X008489Y012566D01*
X008340Y012445D01*
X008280Y012476D01*
X008216Y012496D01*
X008197Y012687D01*
X008053Y012687D01*
X008034Y012496D01*
X007970Y012476D01*
X007910Y012445D01*
X007761Y012566D01*
X007660Y012464D01*
X007781Y012316D01*
X007750Y012256D01*
X007729Y012192D01*
X007539Y012173D01*
X007539Y012029D01*
X007729Y012009D01*
X007750Y011945D01*
X007781Y011885D01*
X007660Y011737D01*
X007761Y011635D01*
X007910Y011756D01*
X007970Y011726D01*
X008054Y011930D01*
X008017Y011951D01*
X007985Y011981D01*
X007961Y012017D01*
X007946Y012058D01*
X007539Y012058D01*
X007539Y012115D02*
X007942Y012115D01*
X007940Y012101D02*
X007946Y012144D01*
X007961Y012186D01*
X007986Y012222D01*
X008019Y012252D01*
X008058Y012273D01*
X008101Y012284D01*
X008145Y012284D01*
X008188Y012274D01*
X008227Y012254D01*
X008261Y012225D01*
X008287Y012189D01*
X008303Y012148D01*
X008309Y012105D01*
X008305Y012061D01*
X008290Y012019D01*
X008266Y011982D01*
X008234Y011952D01*
X008196Y011930D01*
X008280Y011726D01*
X008340Y011756D01*
X008489Y011635D01*
X008590Y011737D01*
X008566Y011712D02*
X008394Y011712D01*
X008465Y011655D02*
X008508Y011655D01*
X008564Y011770D02*
X008262Y011770D01*
X008238Y011827D02*
X008517Y011827D01*
X008470Y011885D02*
X008214Y011885D01*
X008218Y011943D02*
X008499Y011943D01*
X008518Y012000D02*
X008278Y012000D01*
X008304Y012058D02*
X008711Y012058D01*
X008711Y012115D02*
X008308Y012115D01*
X008293Y012173D02*
X008709Y012173D01*
X008508Y012230D02*
X008255Y012230D01*
X008484Y012288D02*
X007766Y012288D01*
X007756Y012345D02*
X008494Y012345D01*
X008540Y012403D02*
X007710Y012403D01*
X007663Y012461D02*
X007891Y012461D01*
X007940Y012461D02*
X008310Y012461D01*
X008359Y012461D02*
X008587Y012461D01*
X008536Y012518D02*
X008430Y012518D01*
X008214Y012518D02*
X008036Y012518D01*
X008042Y012576D02*
X008208Y012576D01*
X008202Y012633D02*
X008048Y012633D01*
X007820Y012518D02*
X007714Y012518D01*
X007742Y012230D02*
X007995Y012230D01*
X007956Y012173D02*
X007541Y012173D01*
X007732Y012000D02*
X007972Y012000D01*
X007946Y012058D02*
X007940Y012101D01*
X008032Y011943D02*
X007751Y011943D01*
X007780Y011885D02*
X008036Y011885D01*
X008012Y011827D02*
X007733Y011827D01*
X007686Y011770D02*
X007988Y011770D01*
X007856Y011712D02*
X007684Y011712D01*
X007742Y011655D02*
X007785Y011655D01*
D19*
X006400Y014144D03*
X004400Y015269D03*
X003712Y015144D03*
X003369Y014832D03*
X002744Y014707D03*
X002744Y014519D03*
X002744Y013894D03*
X004244Y014769D03*
X003431Y015644D03*
D20*
X003181Y014300D03*
X002744Y013925D03*
D21*
X002213Y014363D03*
X002182Y014425D03*
X002150Y014738D03*
X003088Y015175D03*
X003119Y015300D03*
X003150Y015425D03*
X002557Y015550D03*
X003244Y014925D03*
X003338Y014675D03*
X003338Y014613D03*
X003932Y013925D03*
X005838Y014238D03*
X005932Y014675D03*
X004119Y015613D03*
D22*
X003713Y015300D03*
X003713Y015238D03*
X003744Y014675D03*
X004244Y014175D03*
X004619Y013988D03*
X004619Y013925D03*
X004713Y014363D03*
X004713Y014425D03*
X004744Y014550D03*
X004744Y014613D03*
X005244Y014613D03*
X005244Y014550D03*
X005244Y014488D03*
X005213Y014425D03*
X005963Y014550D03*
X006338Y014300D03*
X006338Y014238D03*
X007463Y014675D03*
X007494Y014738D03*
X002744Y014675D03*
X002744Y014613D03*
X002619Y015300D03*
X001963Y015300D03*
X001963Y015238D03*
D23*
X005291Y013925D03*
D24*
X004119Y014363D03*
X006463Y013925D03*
X007838Y014363D03*
D25*
X006900Y013925D03*
X006275Y014175D03*
X005400Y015425D03*
X004775Y015425D03*
D26*
X004322Y015238D03*
X003259Y015675D03*
X003197Y015488D03*
X002634Y015738D03*
X003322Y014550D03*
X003259Y014425D03*
X002259Y014300D03*
X007634Y013925D03*
X007947Y014300D03*
D27*
X004150Y015644D03*
X002681Y013957D03*
D28*
X003150Y014269D03*
X003931Y013957D03*
X004181Y014332D03*
X007900Y014332D03*
D29*
X007963Y014207D03*
X007963Y014769D03*
X007463Y014707D03*
X006338Y014269D03*
X005963Y014457D03*
X005963Y014519D03*
X005963Y014582D03*
X005244Y014582D03*
X005244Y014519D03*
X005213Y014457D03*
X005213Y014394D03*
X004713Y014394D03*
X004713Y014457D03*
X004744Y014582D03*
X004744Y014644D03*
X004244Y014269D03*
X004244Y014207D03*
X004619Y013957D03*
X003744Y014707D03*
X003713Y015207D03*
X003713Y015269D03*
X002619Y015207D03*
X001994Y015332D03*
X001963Y015269D03*
X002619Y015582D03*
X002744Y014644D03*
X002744Y014582D03*
D30*
X004072Y014394D03*
X005322Y013957D03*
D31*
X006572Y013957D03*
X006759Y014957D03*
X003884Y014082D03*
X002384Y015832D03*
D32*
X003869Y014582D03*
X007588Y014582D03*
X007619Y013957D03*
D33*
X002603Y013988D03*
X002353Y014238D03*
X002228Y015988D03*
D34*
X003025Y015363D03*
X004838Y015300D03*
X005088Y015175D03*
X006244Y015363D03*
X006494Y015363D03*
X006650Y014175D03*
X007369Y014238D03*
X003057Y013988D03*
D35*
X003900Y013988D03*
D36*
X005338Y013988D03*
X007619Y013988D03*
D37*
X007634Y014113D03*
X006572Y013988D03*
D38*
X002541Y014019D03*
X002291Y014269D03*
X002541Y015144D03*
D39*
X003041Y015207D03*
X002666Y015644D03*
X002041Y015644D03*
X003041Y014019D03*
X006416Y014707D03*
D40*
X005525Y014957D03*
X003900Y014019D03*
X002119Y014957D03*
X003650Y015894D03*
D41*
X003697Y016019D03*
X004385Y015332D03*
X005260Y014644D03*
X005197Y014332D03*
X004635Y014019D03*
X001947Y015207D03*
X007822Y015019D03*
D42*
X007775Y014832D03*
X006650Y014519D03*
X005400Y014019D03*
D43*
X005432Y014082D03*
X006588Y014082D03*
X006588Y014019D03*
X006713Y014769D03*
X006744Y014832D03*
X006744Y014894D03*
X005588Y014832D03*
X003932Y014144D03*
X002213Y015019D03*
X002369Y015894D03*
X007650Y014144D03*
D44*
X007603Y014019D03*
D45*
X006385Y014113D03*
X007822Y014988D03*
X004197Y014925D03*
X002510Y014050D03*
D46*
X002994Y014050D03*
X003244Y014363D03*
X003088Y015113D03*
X003244Y015550D03*
X004244Y015550D03*
D47*
X002259Y015488D03*
X003884Y014050D03*
X006634Y014488D03*
D48*
X006400Y014613D03*
X006431Y014738D03*
X005931Y014425D03*
X005931Y014363D03*
X005275Y014675D03*
X004775Y014738D03*
X004775Y014800D03*
X004806Y014863D03*
X004806Y014925D03*
X004181Y014988D03*
X003775Y014738D03*
X003650Y014175D03*
X004650Y014113D03*
X004650Y014050D03*
X004681Y014175D03*
X004681Y014238D03*
X004681Y014300D03*
X005181Y014300D03*
X005181Y014238D03*
X002650Y015613D03*
X002681Y015675D03*
X002056Y015738D03*
X002025Y015613D03*
D49*
X005416Y014050D03*
D50*
X006588Y014050D03*
X006744Y014863D03*
X006744Y014925D03*
X006775Y014988D03*
X005588Y014863D03*
X003963Y015675D03*
X002369Y015863D03*
X002275Y015425D03*
D51*
X007603Y014050D03*
D52*
X003728Y015832D03*
X002728Y014082D03*
D53*
X003275Y014769D03*
X002650Y015269D03*
X002025Y015582D03*
X002056Y015707D03*
X004806Y014957D03*
X004806Y014894D03*
X004806Y014832D03*
X004775Y014769D03*
X004775Y014707D03*
X005275Y014707D03*
X004681Y014332D03*
X004681Y014269D03*
X004681Y014207D03*
X004650Y014144D03*
X004650Y014082D03*
X005181Y014207D03*
X005181Y014269D03*
X005931Y014394D03*
X006400Y014644D03*
D54*
X007603Y014082D03*
D55*
X003807Y015738D03*
X002744Y014113D03*
D56*
X003916Y014113D03*
D57*
X005463Y014113D03*
X005588Y014800D03*
X002369Y015800D03*
X002244Y015050D03*
D58*
X006634Y015238D03*
X006759Y014113D03*
D59*
X006947Y014113D03*
X005697Y015425D03*
X004385Y015175D03*
D60*
X002744Y014144D03*
D61*
X002369Y015769D03*
X005494Y014144D03*
D62*
X006181Y014144D03*
X006650Y015207D03*
X006556Y015332D03*
X006181Y015332D03*
X005681Y015394D03*
X005181Y015394D03*
X004275Y014707D03*
X008025Y014707D03*
D63*
X006822Y014144D03*
D64*
X002728Y014175D03*
D65*
X005510Y014175D03*
X003697Y015863D03*
D66*
X004041Y015925D03*
X004416Y015300D03*
X005416Y015300D03*
X006916Y014175D03*
D67*
X007385Y014175D03*
X005947Y014488D03*
X004760Y014675D03*
X004822Y014988D03*
X002635Y015238D03*
X001947Y015175D03*
D68*
X002134Y014675D03*
X002134Y014613D03*
X002134Y014550D03*
X003322Y014738D03*
X004259Y014238D03*
X005884Y014300D03*
X005947Y014613D03*
X004322Y015363D03*
X003197Y015613D03*
X007947Y014175D03*
D69*
X002744Y014207D03*
D70*
X003635Y014207D03*
X004135Y015019D03*
X003197Y015269D03*
X003947Y015957D03*
X006885Y015207D03*
D71*
X005775Y014207D03*
X003150Y015019D03*
D72*
X002744Y014769D03*
X003713Y015394D03*
X004182Y015269D03*
X006244Y014207D03*
X006400Y014207D03*
X006619Y015269D03*
D73*
X006244Y015269D03*
X005963Y015207D03*
X007369Y014207D03*
D74*
X005478Y014988D03*
X003103Y014238D03*
D75*
X003619Y014238D03*
X002744Y014488D03*
X002994Y015238D03*
X005088Y015425D03*
X005963Y015175D03*
X006869Y015425D03*
X007994Y014738D03*
D76*
X007978Y014238D03*
X002603Y015175D03*
D77*
X002978Y015269D03*
X003603Y014269D03*
X006228Y015394D03*
X006478Y015394D03*
D78*
X005853Y014269D03*
X007978Y014269D03*
X003228Y014894D03*
X002603Y015332D03*
D79*
X004478Y015144D03*
X004978Y015269D03*
X007353Y014269D03*
D80*
X006463Y015175D03*
X006463Y015238D03*
X006463Y015300D03*
X006463Y015425D03*
X006244Y015425D03*
X006119Y015175D03*
X005463Y015238D03*
X005338Y015238D03*
X005338Y015363D03*
X005213Y015363D03*
X005213Y015300D03*
X004994Y015238D03*
X004963Y015300D03*
X004994Y015363D03*
X004869Y015363D03*
X004713Y015363D03*
X004713Y015300D03*
X004713Y015238D03*
X004713Y015175D03*
X003494Y015613D03*
X003244Y014800D03*
X003588Y014300D03*
X006963Y015238D03*
X006994Y015300D03*
X006994Y015363D03*
D81*
X004228Y014300D03*
D82*
X002228Y014332D03*
X001978Y015144D03*
D83*
X003228Y014332D03*
D84*
X003291Y014519D03*
X003791Y014769D03*
X002666Y015707D03*
X002166Y014457D03*
X005916Y014332D03*
D85*
X006353Y014332D03*
X004728Y014519D03*
X003728Y015332D03*
D86*
X002744Y014738D03*
X005244Y014363D03*
X006244Y015238D03*
D87*
X006619Y014425D03*
X006619Y014363D03*
D88*
X007494Y014644D03*
X007525Y014769D03*
X004307Y015207D03*
X004307Y015394D03*
X003150Y015394D03*
X003119Y015332D03*
X002150Y014769D03*
X002150Y014519D03*
X002182Y014394D03*
X003338Y014644D03*
D89*
X003244Y014394D03*
X003088Y015082D03*
X003088Y015144D03*
X003244Y015582D03*
X004213Y015582D03*
D90*
X002244Y015457D03*
X006619Y014394D03*
D91*
X007806Y014394D03*
X004056Y014832D03*
D92*
X004041Y014425D03*
D93*
X007697Y014488D03*
X007760Y014425D03*
X007822Y014925D03*
D94*
X005916Y014707D03*
X004291Y015457D03*
X003166Y015457D03*
X003291Y014457D03*
D95*
X003994Y014457D03*
D96*
X005572Y014894D03*
X006634Y014457D03*
D97*
X007728Y014457D03*
D98*
X002166Y014488D03*
D99*
X003291Y014488D03*
X003291Y014863D03*
X003791Y014613D03*
X004291Y015425D03*
D100*
X003978Y014488D03*
X002103Y014925D03*
D101*
X002728Y014550D03*
X003728Y015175D03*
X004728Y014488D03*
X003853Y015988D03*
D102*
X003947Y014519D03*
D103*
X007666Y014519D03*
D104*
X003916Y014550D03*
D105*
X006650Y014550D03*
X007806Y014863D03*
D106*
X007634Y014550D03*
X002259Y015925D03*
D107*
X003572Y015957D03*
X003322Y014707D03*
X003759Y014644D03*
X002134Y014644D03*
X002134Y014582D03*
X002134Y014707D03*
X005947Y014644D03*
D108*
X005166Y015207D03*
X005041Y015207D03*
X004166Y015332D03*
X004166Y015894D03*
X002666Y015957D03*
X003166Y014582D03*
D109*
X003416Y014582D03*
D110*
X006635Y014582D03*
X007822Y014894D03*
D111*
X007525Y014613D03*
X004275Y015488D03*
X003181Y014988D03*
D112*
X002041Y015675D03*
X006416Y014675D03*
D113*
X004259Y014738D03*
X004197Y015300D03*
X002697Y015925D03*
D114*
X005603Y014738D03*
D115*
X005603Y014769D03*
D116*
X005181Y015238D03*
X004400Y015613D03*
X003150Y014800D03*
X006181Y015300D03*
X006306Y015300D03*
D117*
X003416Y014800D03*
D118*
X004025Y014800D03*
D119*
X006728Y014800D03*
D120*
X007760Y014800D03*
D121*
X004119Y014863D03*
X003588Y015925D03*
D122*
X003447Y014894D03*
X005697Y015207D03*
X005697Y015269D03*
X005697Y015332D03*
X005885Y015332D03*
X005885Y015394D03*
X005885Y015269D03*
X006135Y015207D03*
D123*
X004259Y015519D03*
X004197Y014957D03*
X003197Y014957D03*
X003197Y015519D03*
X002009Y014894D03*
D124*
X002322Y014894D03*
X003259Y015207D03*
X003134Y015707D03*
X005009Y015394D03*
X006947Y015394D03*
D125*
X004166Y014894D03*
D126*
X005541Y014925D03*
X002166Y014988D03*
D127*
X007822Y014957D03*
D128*
X003103Y015050D03*
X002103Y015550D03*
D129*
X002260Y015082D03*
D130*
X003228Y015238D03*
X003728Y015113D03*
X006853Y015175D03*
D131*
X002275Y015113D03*
D132*
X005322Y015175D03*
X005510Y015175D03*
X005697Y015175D03*
X005697Y015238D03*
X005697Y015300D03*
X005697Y015363D03*
X005510Y015363D03*
X005885Y015363D03*
X005885Y015425D03*
X005885Y015300D03*
X005885Y015238D03*
X006572Y015300D03*
D133*
X006353Y015175D03*
D134*
X006666Y015175D03*
X006666Y015300D03*
X006666Y015363D03*
X006666Y015425D03*
X006791Y015363D03*
X006791Y015300D03*
X006791Y015238D03*
X003666Y015988D03*
X003166Y015738D03*
D135*
X004713Y015394D03*
X004713Y015332D03*
X004713Y015207D03*
X004869Y015332D03*
X004869Y015394D03*
X004963Y015332D03*
X005213Y015332D03*
X005213Y015269D03*
X005338Y015207D03*
X005338Y015332D03*
X005338Y015394D03*
X005494Y015394D03*
X005494Y015332D03*
X005494Y015207D03*
X006338Y015207D03*
X006463Y015207D03*
X006463Y015269D03*
X006463Y015332D03*
X006994Y015332D03*
X006994Y015269D03*
D136*
X005400Y015269D03*
X004775Y015269D03*
X003150Y015644D03*
D137*
X003916Y016019D03*
X006291Y015332D03*
X006666Y015332D03*
X006666Y015394D03*
X006791Y015394D03*
X006791Y015332D03*
X006791Y015269D03*
D138*
X003728Y015363D03*
X003228Y015363D03*
D139*
X002306Y015363D03*
D140*
X002291Y015394D03*
D141*
X002291Y015519D03*
D142*
X003807Y015707D03*
D143*
X003728Y015769D03*
D144*
X003728Y015800D03*
D145*
X002244Y015957D03*
D146*
X003478Y015988D03*
M02*
