G75*
%MOIN*%
%OFA0B0*%
%FSLAX24Y24*%
%IPPOS*%
%LPD*%
%AMOC8*
5,1,8,0,0,1.08239X$1,22.5*
%
%ADD10C,0.0000*%
D10*
X000625Y002101D02*
X000625Y018601D01*
X032125Y018601D01*
X032125Y002101D01*
X000625Y002101D01*
X026770Y013331D02*
X026772Y013368D01*
X026778Y013405D01*
X026787Y013441D01*
X026801Y013475D01*
X026818Y013508D01*
X026838Y013540D01*
X026861Y013569D01*
X026887Y013595D01*
X026916Y013618D01*
X026947Y013638D01*
X026981Y013655D01*
X027015Y013669D01*
X027051Y013678D01*
X027088Y013684D01*
X027125Y013686D01*
X027162Y013684D01*
X027199Y013678D01*
X027235Y013669D01*
X027269Y013655D01*
X027302Y013638D01*
X027334Y013618D01*
X027363Y013595D01*
X027389Y013569D01*
X027412Y013540D01*
X027432Y013509D01*
X027449Y013475D01*
X027463Y013441D01*
X027472Y013405D01*
X027478Y013368D01*
X027480Y013331D01*
X027478Y013294D01*
X027472Y013257D01*
X027463Y013221D01*
X027449Y013187D01*
X027432Y013154D01*
X027412Y013122D01*
X027389Y013093D01*
X027363Y013067D01*
X027334Y013044D01*
X027303Y013024D01*
X027269Y013007D01*
X027235Y012993D01*
X027199Y012984D01*
X027162Y012978D01*
X027125Y012976D01*
X027088Y012978D01*
X027051Y012984D01*
X027015Y012993D01*
X026981Y013007D01*
X026948Y013024D01*
X026916Y013044D01*
X026887Y013067D01*
X026861Y013093D01*
X026838Y013122D01*
X026818Y013153D01*
X026801Y013187D01*
X026787Y013221D01*
X026778Y013257D01*
X026772Y013294D01*
X026770Y013331D01*
X026770Y016871D02*
X026772Y016908D01*
X026778Y016945D01*
X026787Y016981D01*
X026801Y017015D01*
X026818Y017048D01*
X026838Y017080D01*
X026861Y017109D01*
X026887Y017135D01*
X026916Y017158D01*
X026947Y017178D01*
X026981Y017195D01*
X027015Y017209D01*
X027051Y017218D01*
X027088Y017224D01*
X027125Y017226D01*
X027162Y017224D01*
X027199Y017218D01*
X027235Y017209D01*
X027269Y017195D01*
X027302Y017178D01*
X027334Y017158D01*
X027363Y017135D01*
X027389Y017109D01*
X027412Y017080D01*
X027432Y017049D01*
X027449Y017015D01*
X027463Y016981D01*
X027472Y016945D01*
X027478Y016908D01*
X027480Y016871D01*
X027478Y016834D01*
X027472Y016797D01*
X027463Y016761D01*
X027449Y016727D01*
X027432Y016694D01*
X027412Y016662D01*
X027389Y016633D01*
X027363Y016607D01*
X027334Y016584D01*
X027303Y016564D01*
X027269Y016547D01*
X027235Y016533D01*
X027199Y016524D01*
X027162Y016518D01*
X027125Y016516D01*
X027088Y016518D01*
X027051Y016524D01*
X027015Y016533D01*
X026981Y016547D01*
X026948Y016564D01*
X026916Y016584D01*
X026887Y016607D01*
X026861Y016633D01*
X026838Y016662D01*
X026818Y016693D01*
X026801Y016727D01*
X026787Y016761D01*
X026778Y016797D01*
X026772Y016834D01*
X026770Y016871D01*
M02*
