G75*
%MOIN*%
%OFA0B0*%
%FSLAX24Y24*%
%IPPOS*%
%LPD*%
%AMOC8*
5,1,8,0,0,1.08239X$1,22.5*
%
%ADD10C,0.0640*%
%ADD11C,0.0808*%
%ADD12C,0.0780*%
%ADD13C,0.0595*%
%ADD14C,0.0760*%
%ADD15R,0.0760X0.0760*%
%ADD16C,0.0750*%
%ADD17C,0.0750*%
%ADD18R,0.0780X0.0780*%
D10*
X011294Y003388D03*
X011294Y004175D03*
X011294Y004963D03*
X011294Y005750D03*
X011294Y006538D03*
X011294Y007325D03*
X011294Y008112D03*
X011294Y008900D03*
X011294Y009687D03*
X011294Y010475D03*
X019956Y010475D03*
X019956Y009687D03*
X019956Y008900D03*
X019956Y008112D03*
X019956Y007325D03*
X019956Y006538D03*
X019956Y005750D03*
X019956Y004963D03*
X019956Y004175D03*
X019956Y003388D03*
D11*
X026125Y003892D03*
X026125Y011766D03*
X005125Y012766D03*
X005125Y004892D03*
D12*
X010125Y005101D03*
X010125Y006101D03*
X010125Y007101D03*
X010125Y008101D03*
X010125Y009101D03*
X010125Y010101D03*
X010125Y011101D03*
X010125Y012101D03*
X012125Y014101D03*
X013125Y014101D03*
X012625Y014851D03*
X014625Y014101D03*
X015625Y014101D03*
X015125Y014851D03*
X017125Y014101D03*
X018125Y014101D03*
X017625Y014851D03*
X019625Y014101D03*
X020625Y014101D03*
X020125Y014851D03*
X022125Y013601D03*
X023125Y013601D03*
X021125Y012101D03*
X021125Y011101D03*
X021125Y010101D03*
X021125Y009101D03*
X021125Y008101D03*
X021125Y007101D03*
X021125Y006101D03*
X021125Y005101D03*
X021125Y004101D03*
X021125Y003101D03*
X022625Y003101D03*
X030625Y003101D03*
X031125Y007601D03*
X031125Y011601D03*
X029125Y011601D03*
X023125Y017601D03*
X022125Y017601D03*
X008625Y016051D03*
X007625Y016151D03*
X006625Y016051D03*
X006625Y017601D03*
X005625Y017601D03*
X004625Y017601D03*
X003625Y017601D03*
X007625Y017601D03*
X002125Y013101D03*
X002125Y012101D03*
X010125Y004101D03*
X010125Y003101D03*
D13*
X001125Y012601D03*
X001125Y013601D03*
X001125Y015101D03*
X001125Y016101D03*
X001125Y017101D03*
X031625Y017101D03*
X031625Y016101D03*
X031625Y015101D03*
X031625Y013601D03*
X031625Y012601D03*
D14*
X001125Y003601D03*
D15*
X002125Y003601D03*
D16*
X024310Y014121D02*
X025020Y014121D01*
X025020Y016081D02*
X024310Y016081D01*
X029230Y016081D02*
X029940Y016081D01*
X029940Y014121D02*
X029230Y014121D01*
D17*
X027125Y013331D03*
X027125Y016871D03*
D18*
X008625Y017601D03*
M02*
