%
M48
M72
T01C0.0120
T02C0.0130
T03C0.0236
T04C0.0276
T05C0.0315
T06C0.0320
T07C0.0354
T08C0.0400
T09C0.0470
T10C0.0512
T11C0.0710
%
T01
X3124Y3236
X2410Y7315
X8649Y8472
X16882Y3194
X13648Y2879
X18731Y4939
X28918Y2963
X31711Y5591
X31144Y9986
X24087Y17093
X27510Y17997
X30766Y18039
X18478Y15243
X16735Y15264
X9573Y16168
X5099Y16189
X3272Y16294
X1969Y18102
T02
X6625Y15101
X6125Y14601
X7125Y14601
X6125Y13601
X6125Y13101
X7625Y13101
X7125Y12101
X8125Y11601
X8125Y11101
X9625Y11601
X13125Y10601
X14625Y12101
X19625Y11601
X19125Y15601
X20125Y16601
X21625Y17101
X17125Y16601
X16125Y15601
X14125Y16601
X12625Y16601
X11125Y16601
X9125Y16601
X9125Y15601
X1625Y14601
X7625Y8101
X8625Y7101
X4625Y5601
X7625Y4101
X7125Y2601
X9125Y2601
X17625Y5101
X17625Y5601
X16625Y7601
X26625Y14601
T03
X23125Y12601
X23125Y8601
X26125Y8601
X29125Y8601
X26125Y17601
X10125Y14101
X8625Y12601
X7212Y13607
T04
X2125Y3601
X1125Y3601
T05
X11294Y3388
X11294Y4175
X11294Y4963
X11294Y5750
X11294Y6538
X11294Y7325
X11294Y8112
X11294Y8900
X11294Y9687
X11294Y10475
X19956Y10475
X19956Y9687
X19956Y8900
X19956Y8112
X19956Y7325
X19956Y6538
X19956Y5750
X19956Y4963
X19956Y4175
X19956Y3388
X31625Y12601
X31625Y13601
X31625Y15101
X31625Y16101
X31625Y17101
X1125Y17101
X1125Y16101
X1125Y15101
X1125Y13601
X1125Y12601
T06
X12125Y14101
X13125Y14101
X12625Y14851
X14625Y14101
X15625Y14101
X15125Y14851
X17125Y14101
X18125Y14101
X17625Y14851
X19625Y14101
X20625Y14101
X20125Y14851
T07
X22125Y13601
X23125Y13601
X23125Y17601
X22125Y17601
X31125Y11601
X31125Y7601
T08
X29125Y11601
X21125Y12101
X21125Y11101
X21125Y10101
X21125Y9101
X21125Y8101
X21125Y7101
X21125Y6101
X21125Y5101
X21125Y4101
X21125Y3101
X22625Y3101
X30625Y3101
X10125Y3101
X10125Y4101
X10125Y5101
X10125Y6101
X10125Y7101
X10125Y8101
X10125Y9101
X10125Y10101
X10125Y11101
X10125Y12101
X8625Y16051
X7625Y16151
X6625Y16051
X6625Y17601
X5625Y17601
X4625Y17601
X3625Y17601
X7625Y17601
X8625Y17601
X2125Y13101
X2125Y12101
T09
X24665Y14121
X24665Y16081
X29585Y16081
X29585Y14121
T10
X26125Y11766
X26125Y3892
X5125Y4892
X5125Y12766
T11
X27125Y13331
X27125Y16871
M30
