G75*
%MOIN*%
%OFA0B0*%
%FSLAX24Y24*%
%IPPOS*%
%LPD*%
%AMOC8*
5,1,8,0,0,1.08239X$1,22.5*
%
%ADD10C,0.0000*%
%ADD11C,0.0200*%
%ADD12C,0.0040*%
%ADD13C,0.0020*%
D10*
X000625Y002101D02*
X000625Y018601D01*
X032125Y018601D01*
X032125Y002101D01*
X000625Y002101D01*
X026770Y013331D02*
X026772Y013368D01*
X026778Y013405D01*
X026787Y013441D01*
X026801Y013475D01*
X026818Y013508D01*
X026838Y013540D01*
X026861Y013569D01*
X026887Y013595D01*
X026916Y013618D01*
X026947Y013638D01*
X026981Y013655D01*
X027015Y013669D01*
X027051Y013678D01*
X027088Y013684D01*
X027125Y013686D01*
X027162Y013684D01*
X027199Y013678D01*
X027235Y013669D01*
X027269Y013655D01*
X027302Y013638D01*
X027334Y013618D01*
X027363Y013595D01*
X027389Y013569D01*
X027412Y013540D01*
X027432Y013509D01*
X027449Y013475D01*
X027463Y013441D01*
X027472Y013405D01*
X027478Y013368D01*
X027480Y013331D01*
X027478Y013294D01*
X027472Y013257D01*
X027463Y013221D01*
X027449Y013187D01*
X027432Y013154D01*
X027412Y013122D01*
X027389Y013093D01*
X027363Y013067D01*
X027334Y013044D01*
X027303Y013024D01*
X027269Y013007D01*
X027235Y012993D01*
X027199Y012984D01*
X027162Y012978D01*
X027125Y012976D01*
X027088Y012978D01*
X027051Y012984D01*
X027015Y012993D01*
X026981Y013007D01*
X026948Y013024D01*
X026916Y013044D01*
X026887Y013067D01*
X026861Y013093D01*
X026838Y013122D01*
X026818Y013153D01*
X026801Y013187D01*
X026787Y013221D01*
X026778Y013257D01*
X026772Y013294D01*
X026770Y013331D01*
X026770Y016871D02*
X026772Y016908D01*
X026778Y016945D01*
X026787Y016981D01*
X026801Y017015D01*
X026818Y017048D01*
X026838Y017080D01*
X026861Y017109D01*
X026887Y017135D01*
X026916Y017158D01*
X026947Y017178D01*
X026981Y017195D01*
X027015Y017209D01*
X027051Y017218D01*
X027088Y017224D01*
X027125Y017226D01*
X027162Y017224D01*
X027199Y017218D01*
X027235Y017209D01*
X027269Y017195D01*
X027302Y017178D01*
X027334Y017158D01*
X027363Y017135D01*
X027389Y017109D01*
X027412Y017080D01*
X027432Y017049D01*
X027449Y017015D01*
X027463Y016981D01*
X027472Y016945D01*
X027478Y016908D01*
X027480Y016871D01*
X027478Y016834D01*
X027472Y016797D01*
X027463Y016761D01*
X027449Y016727D01*
X027432Y016694D01*
X027412Y016662D01*
X027389Y016633D01*
X027363Y016607D01*
X027334Y016584D01*
X027303Y016564D01*
X027269Y016547D01*
X027235Y016533D01*
X027199Y016524D01*
X027162Y016518D01*
X027125Y016516D01*
X027088Y016518D01*
X027051Y016524D01*
X027015Y016533D01*
X026981Y016547D01*
X026948Y016564D01*
X026916Y016584D01*
X026887Y016607D01*
X026861Y016633D01*
X026838Y016662D01*
X026818Y016693D01*
X026801Y016727D01*
X026787Y016761D01*
X026778Y016797D01*
X026772Y016834D01*
X026770Y016871D01*
D11*
X018375Y010718D02*
X017594Y010718D01*
X017985Y010718D02*
X017985Y008376D01*
X018375Y008376D02*
X017594Y008376D01*
X016816Y008766D02*
X016426Y008376D01*
X015645Y008376D01*
X015255Y008766D01*
X015255Y010327D01*
X015645Y010718D01*
X016426Y010718D01*
X016816Y010327D01*
X016816Y008766D01*
X014477Y008376D02*
X014477Y010718D01*
X012916Y010718D02*
X012916Y008376D01*
X012916Y009547D02*
X014477Y009547D01*
D12*
X014519Y007892D02*
X014606Y007805D01*
X014606Y007372D01*
X014861Y007458D02*
X014861Y007805D01*
X014948Y007892D01*
X015121Y007892D01*
X015208Y007805D01*
X015208Y007458D01*
X015121Y007372D01*
X014948Y007372D01*
X014861Y007458D01*
X014693Y007632D02*
X014519Y007632D01*
X013833Y007632D02*
X013486Y007632D01*
X013317Y007458D02*
X013231Y007372D01*
X012971Y007372D01*
X012971Y007632D01*
X013057Y007719D01*
X013231Y007719D01*
X013231Y007545D02*
X012971Y007545D01*
X012802Y007719D02*
X012628Y007719D01*
X012715Y007805D02*
X012715Y007458D01*
X012628Y007372D01*
X012458Y007372D02*
X012198Y007372D01*
X012111Y007458D01*
X012198Y007545D01*
X012371Y007545D01*
X012458Y007632D01*
X012371Y007719D01*
X012111Y007719D01*
X013231Y007545D02*
X013317Y007458D01*
X013486Y007372D02*
X013486Y007892D01*
X013833Y007892D02*
X013833Y007372D01*
X014046Y007052D02*
X013959Y006965D01*
X014306Y006618D01*
X014219Y006532D01*
X014046Y006532D01*
X013959Y006618D01*
X013959Y006965D01*
X014046Y007052D02*
X014219Y007052D01*
X014306Y006965D01*
X014306Y006618D01*
X014303Y006212D02*
X014303Y005692D01*
X014563Y005692D01*
X014650Y005778D01*
X014650Y005952D01*
X014563Y006039D01*
X014303Y006039D01*
X014818Y005952D02*
X014818Y005865D01*
X015165Y005865D01*
X015165Y005778D02*
X015165Y005952D01*
X015078Y006039D01*
X014905Y006039D01*
X014818Y005952D01*
X014905Y005692D02*
X015078Y005692D01*
X015165Y005778D01*
X015334Y006039D02*
X015507Y005692D01*
X015681Y006039D01*
X015850Y005952D02*
X015936Y006039D01*
X016110Y006039D01*
X016196Y005952D01*
X016196Y005778D01*
X016110Y005692D01*
X015936Y005692D01*
X015850Y005865D02*
X016196Y005865D01*
X016367Y005692D02*
X016540Y005692D01*
X016453Y005692D02*
X016453Y006039D01*
X016540Y006039D01*
X016709Y006039D02*
X016969Y006039D01*
X017056Y005952D01*
X017056Y005778D01*
X016969Y005692D01*
X016709Y005692D01*
X017225Y005692D02*
X017225Y005952D01*
X017311Y006039D01*
X017572Y006039D01*
X017572Y005692D01*
X017740Y005778D02*
X017740Y005952D01*
X017827Y006039D01*
X018000Y006039D01*
X018087Y005952D01*
X018087Y005778D01*
X018000Y005692D01*
X017827Y005692D01*
X017740Y005778D01*
X018256Y005778D02*
X018343Y005692D01*
X018516Y005692D01*
X018603Y005778D01*
X018603Y006125D01*
X018516Y006212D01*
X018343Y006212D01*
X018256Y006125D01*
X018000Y006532D02*
X017826Y006705D01*
X017826Y007052D01*
X017571Y006879D02*
X017397Y006879D01*
X017310Y006792D01*
X017310Y006705D01*
X017657Y006705D01*
X017657Y006618D02*
X017657Y006792D01*
X017571Y006879D01*
X017657Y006618D02*
X017571Y006532D01*
X017397Y006532D01*
X017142Y006532D02*
X017142Y006879D01*
X016968Y006879D02*
X016882Y006879D01*
X016968Y006879D02*
X017142Y006705D01*
X016712Y006792D02*
X016625Y006879D01*
X016365Y006879D01*
X016196Y006879D02*
X016110Y006879D01*
X016110Y006532D01*
X016196Y006532D02*
X016023Y006532D01*
X015853Y006618D02*
X015766Y006532D01*
X015592Y006532D01*
X015506Y006618D01*
X015506Y006792D01*
X015592Y006879D01*
X015766Y006879D01*
X015853Y006792D01*
X015853Y006618D01*
X015337Y006532D02*
X015337Y006879D01*
X015077Y006879D01*
X014990Y006792D01*
X014990Y006532D01*
X015850Y005952D02*
X015850Y005865D01*
X016067Y005459D02*
X016067Y005372D01*
X016067Y005199D02*
X016067Y004852D01*
X016154Y004852D02*
X015980Y004852D01*
X015810Y004852D02*
X015636Y004852D01*
X015723Y004852D02*
X015723Y005372D01*
X015810Y005372D01*
X016067Y005199D02*
X016154Y005199D01*
X016323Y005199D02*
X016583Y005025D01*
X016323Y004852D01*
X016583Y004852D02*
X016583Y005372D01*
X016753Y005199D02*
X016927Y005199D01*
X016840Y005285D02*
X016840Y004938D01*
X016753Y004852D01*
X017096Y004938D02*
X017182Y004852D01*
X017356Y004852D01*
X017443Y004938D01*
X017096Y005285D01*
X017096Y004938D01*
X017443Y004938D02*
X017443Y005285D01*
X017356Y005372D01*
X017182Y005372D01*
X017096Y005285D01*
X017611Y005285D02*
X017611Y004938D01*
X017698Y004852D01*
X017872Y004852D01*
X017958Y004938D01*
X017611Y005285D01*
X017698Y005372D01*
X017872Y005372D01*
X017958Y005285D01*
X017958Y004938D01*
X018128Y005199D02*
X018214Y005199D01*
X018388Y005025D01*
X018388Y004852D02*
X018388Y005199D01*
X018557Y005285D02*
X018557Y005112D01*
X018643Y005025D01*
X018643Y005199D01*
X018817Y005199D01*
X018817Y005025D01*
X018643Y005025D01*
X018557Y004938D02*
X018643Y004852D01*
X018817Y004852D01*
X018904Y004938D01*
X018904Y005285D01*
X018817Y005372D01*
X018643Y005372D01*
X018557Y005285D01*
X018258Y004619D02*
X018258Y004532D01*
X018258Y004359D02*
X018258Y004012D01*
X018345Y004012D02*
X018171Y004012D01*
X018001Y004098D02*
X018001Y004272D01*
X017914Y004359D01*
X017654Y004359D01*
X017654Y004532D02*
X017654Y004012D01*
X017914Y004012D01*
X018001Y004098D01*
X018514Y004098D02*
X018600Y004185D01*
X018774Y004185D01*
X018861Y004272D01*
X018774Y004359D01*
X018514Y004359D01*
X018345Y004359D02*
X018258Y004359D01*
X018514Y004098D02*
X018600Y004012D01*
X018861Y004012D01*
X019029Y004098D02*
X019029Y004185D01*
X019116Y004272D01*
X019376Y004272D01*
X019116Y004272D02*
X019029Y004359D01*
X019029Y004445D01*
X019116Y004532D01*
X019376Y004532D01*
X019376Y004012D01*
X019116Y004012D01*
X019029Y004098D01*
X017486Y004098D02*
X017486Y004272D01*
X017399Y004359D01*
X017225Y004359D01*
X017139Y004272D01*
X017139Y004185D01*
X017486Y004185D01*
X017486Y004098D02*
X017399Y004012D01*
X017225Y004012D01*
X016970Y004012D02*
X016710Y004012D01*
X016623Y004098D01*
X016710Y004185D01*
X016883Y004185D01*
X016970Y004272D01*
X016883Y004359D01*
X016623Y004359D01*
X015939Y004532D02*
X015939Y004012D01*
X015939Y004185D02*
X015678Y004185D01*
X015592Y004272D01*
X015592Y004445D01*
X015678Y004532D01*
X015939Y004532D01*
X015423Y004532D02*
X015163Y004532D01*
X015076Y004445D01*
X015076Y004098D01*
X015163Y004012D01*
X015423Y004012D01*
X015423Y004532D01*
X015466Y004852D02*
X015293Y004852D01*
X015379Y004852D02*
X015379Y005372D01*
X015466Y005372D01*
X015035Y005199D02*
X014862Y005199D01*
X014775Y005112D01*
X014775Y004852D01*
X015035Y004852D01*
X015122Y004938D01*
X015035Y005025D01*
X014775Y005025D01*
X014607Y005112D02*
X014520Y005199D01*
X014346Y005199D01*
X014260Y005112D01*
X014260Y004852D01*
X014607Y004852D02*
X014607Y005372D01*
X013618Y005692D02*
X013358Y005692D01*
X013271Y005778D01*
X013271Y005952D01*
X013358Y006039D01*
X013618Y006039D01*
X013618Y006212D02*
X013618Y005692D01*
X013103Y005778D02*
X013016Y005692D01*
X012756Y005692D01*
X012756Y005605D02*
X012842Y005518D01*
X012929Y005518D01*
X012756Y005605D02*
X012756Y006039D01*
X013103Y006039D02*
X013103Y005778D01*
X013402Y005372D02*
X013489Y005285D01*
X013489Y004852D01*
X013232Y004938D02*
X013145Y004852D01*
X012971Y004852D01*
X012885Y004938D01*
X012885Y005112D01*
X012971Y005199D01*
X013145Y005199D01*
X013232Y005112D01*
X013232Y004938D01*
X013402Y005112D02*
X013575Y005112D01*
X012716Y005199D02*
X012716Y004852D01*
X012716Y005025D02*
X012542Y005199D01*
X012456Y005199D01*
X012671Y004532D02*
X012671Y004012D01*
X012498Y004012D02*
X012845Y004012D01*
X013013Y004098D02*
X013100Y004012D01*
X013274Y004012D01*
X013360Y004098D01*
X013013Y004445D01*
X013013Y004098D01*
X013360Y004098D02*
X013360Y004445D01*
X013274Y004532D01*
X013100Y004532D01*
X013013Y004445D01*
X012845Y004359D02*
X012671Y004532D01*
X012329Y004272D02*
X011982Y004272D01*
X012069Y004012D02*
X012069Y004532D01*
X012329Y004272D01*
X013529Y004359D02*
X013529Y004445D01*
X013616Y004532D01*
X013789Y004532D01*
X013876Y004445D01*
X013529Y004359D02*
X013876Y004012D01*
X013529Y004012D01*
X014560Y004012D02*
X014907Y004532D01*
X014560Y004532D02*
X014907Y004012D01*
X016453Y006212D02*
X016453Y006299D01*
X016452Y006532D02*
X016365Y006618D01*
X016452Y006705D01*
X016625Y006705D01*
X016712Y006792D01*
X016712Y006532D02*
X016452Y006532D01*
X016110Y007052D02*
X016110Y007139D01*
X016323Y007372D02*
X016496Y007372D01*
X016583Y007458D01*
X016583Y007632D01*
X016496Y007719D01*
X016323Y007719D01*
X016236Y007632D01*
X016236Y007545D01*
X016583Y007545D01*
X016752Y007632D02*
X016752Y007372D01*
X016752Y007632D02*
X016839Y007719D01*
X017099Y007719D01*
X017099Y007372D01*
X017529Y007372D02*
X017529Y007719D01*
X017529Y007545D02*
X017355Y007719D01*
X017268Y007719D01*
X017697Y007632D02*
X017697Y007545D01*
X018044Y007545D01*
X018044Y007458D02*
X018044Y007632D01*
X017957Y007719D01*
X017784Y007719D01*
X017697Y007632D01*
X017784Y007372D02*
X017957Y007372D01*
X018044Y007458D01*
X018214Y007372D02*
X018301Y007458D01*
X018301Y007805D01*
X018388Y007719D02*
X018214Y007719D01*
X018557Y007632D02*
X018557Y007372D01*
X018557Y007632D02*
X018643Y007719D01*
X018904Y007719D01*
X018904Y007372D01*
X019074Y007372D02*
X019247Y007372D01*
X019161Y007372D02*
X019161Y007892D01*
X019247Y007892D02*
X019074Y007892D01*
X018173Y007052D02*
X018173Y006705D01*
X018000Y006532D01*
X015981Y007458D02*
X015894Y007372D01*
X015981Y007458D02*
X015981Y007805D01*
X016068Y007719D02*
X015894Y007719D01*
X013790Y006618D02*
X013703Y006618D01*
X013703Y006532D01*
X013790Y006532D01*
X013790Y006618D01*
X013532Y006618D02*
X013446Y006532D01*
X013272Y006532D01*
X013185Y006618D01*
X013185Y006965D01*
X013272Y007052D01*
X013446Y007052D01*
X013532Y006965D01*
X013532Y006879D01*
X013446Y006792D01*
X013185Y006792D01*
D13*
X013081Y003673D02*
X013081Y003413D01*
X013165Y003413D02*
X013295Y003413D01*
X013338Y003456D01*
X013295Y003500D01*
X013165Y003500D01*
X013165Y003543D02*
X013165Y003413D01*
X013165Y003543D02*
X013208Y003586D01*
X013295Y003586D01*
X013467Y003673D02*
X013467Y003413D01*
X013510Y003413D02*
X013424Y003413D01*
X013595Y003413D02*
X013682Y003413D01*
X013639Y003413D02*
X013639Y003673D01*
X013682Y003673D01*
X013811Y003673D02*
X013811Y003716D01*
X013811Y003586D02*
X013811Y003413D01*
X013854Y003413D02*
X013767Y003413D01*
X013939Y003413D02*
X014069Y003500D01*
X013939Y003586D01*
X013854Y003586D02*
X013811Y003586D01*
X014069Y003673D02*
X014069Y003413D01*
X014154Y003413D02*
X014197Y003456D01*
X014197Y003630D01*
X014154Y003586D02*
X014241Y003586D01*
X014325Y003630D02*
X014499Y003456D01*
X014455Y003413D01*
X014369Y003413D01*
X014325Y003456D01*
X014325Y003630D01*
X014369Y003673D01*
X014455Y003673D01*
X014499Y003630D01*
X014499Y003456D01*
X014583Y003456D02*
X014626Y003413D01*
X014713Y003413D01*
X014756Y003456D01*
X014583Y003630D01*
X014583Y003456D01*
X014756Y003456D02*
X014756Y003630D01*
X014713Y003673D01*
X014626Y003673D01*
X014583Y003630D01*
X014841Y003586D02*
X014885Y003586D01*
X014971Y003500D01*
X014971Y003586D02*
X014971Y003413D01*
X015229Y003413D02*
X015056Y003673D01*
X015313Y003543D02*
X015313Y003413D01*
X015400Y003413D02*
X015400Y003543D01*
X015357Y003586D01*
X015313Y003543D01*
X015400Y003543D02*
X015444Y003586D01*
X015487Y003586D01*
X015487Y003413D01*
X015571Y003456D02*
X015571Y003543D01*
X015615Y003586D01*
X015701Y003586D01*
X015745Y003543D01*
X015745Y003456D01*
X015701Y003413D01*
X015615Y003413D01*
X015571Y003456D01*
X015829Y003413D02*
X015959Y003413D01*
X016003Y003456D01*
X016003Y003543D01*
X015959Y003586D01*
X015829Y003586D01*
X016088Y003456D02*
X016088Y003413D01*
X016131Y003413D01*
X016131Y003456D01*
X016088Y003456D01*
X016216Y003456D02*
X016216Y003543D01*
X016259Y003586D01*
X016389Y003586D01*
X016474Y003586D02*
X016474Y003413D01*
X016604Y003413D01*
X016647Y003456D01*
X016647Y003586D01*
X016731Y003543D02*
X016775Y003586D01*
X016862Y003586D01*
X016905Y003543D01*
X016990Y003586D02*
X017077Y003586D01*
X017033Y003630D02*
X017033Y003456D01*
X016990Y003413D01*
X016905Y003413D02*
X016905Y003673D01*
X016731Y003543D02*
X016731Y003413D01*
X016389Y003413D02*
X016389Y003673D01*
X016389Y003413D02*
X016259Y003413D01*
X016216Y003456D01*
X017162Y003413D02*
X017249Y003413D01*
X017205Y003413D02*
X017205Y003586D01*
X017249Y003586D01*
X017333Y003586D02*
X017463Y003586D01*
X017507Y003543D01*
X017507Y003456D01*
X017463Y003413D01*
X017333Y003413D01*
X017333Y003369D02*
X017333Y003586D01*
X017205Y003673D02*
X017205Y003716D01*
X017591Y003673D02*
X017764Y003413D01*
X018022Y003413D02*
X017849Y003673D01*
X018108Y003586D02*
X018108Y003543D01*
X018151Y003543D01*
X018151Y003586D01*
X018108Y003586D01*
X018235Y003586D02*
X018366Y003586D01*
X018409Y003543D01*
X018366Y003500D01*
X018279Y003500D01*
X018235Y003456D01*
X018279Y003413D01*
X018409Y003413D01*
X018493Y003456D02*
X018537Y003413D01*
X018667Y003413D01*
X018752Y003413D02*
X018795Y003456D01*
X018795Y003630D01*
X018752Y003586D02*
X018839Y003586D01*
X018924Y003586D02*
X019010Y003586D01*
X018967Y003630D02*
X018967Y003456D01*
X018924Y003413D01*
X019095Y003413D02*
X019095Y003543D01*
X019138Y003586D01*
X019225Y003586D01*
X019268Y003543D01*
X019268Y003673D02*
X019268Y003413D01*
X018667Y003326D02*
X018667Y003586D01*
X018537Y003586D01*
X018493Y003543D01*
X018493Y003456D01*
X018151Y003456D02*
X018151Y003413D01*
X018108Y003413D01*
X018108Y003456D01*
X018151Y003456D01*
X017420Y003326D02*
X017376Y003326D01*
X017333Y003369D01*
X013510Y003673D02*
X013467Y003673D01*
X013081Y003543D02*
X013037Y003586D01*
X012951Y003586D01*
X012907Y003543D01*
X012907Y003413D01*
X012823Y003413D02*
X012649Y003673D01*
X012565Y003586D02*
X012522Y003586D01*
X012522Y003413D01*
X012565Y003413D02*
X012478Y003413D01*
X012393Y003456D02*
X012350Y003413D01*
X012263Y003413D01*
X012220Y003456D01*
X012220Y003543D01*
X012263Y003586D01*
X012350Y003586D01*
X012393Y003543D01*
X012393Y003456D01*
X012522Y003673D02*
X012522Y003716D01*
X012135Y003673D02*
X012135Y003413D01*
X012135Y003543D02*
X012092Y003586D01*
X012005Y003586D01*
X011962Y003543D01*
X011962Y003413D01*
M02*
